<svg xmlns="http://www.w3.org/2000/svg" viewBox="0 0 41.93 41.99"><defs><style>.cls-1{fill:#f7f7f7;}</style></defs><g id="Слой_2" data-name="Слой 2"><g id="Слой_5" data-name="Слой 5"><path class="cls-1" d="M22.31,40.58s.4,0-.23.08a19.05,19.05,0,0,1-5.58-.51h-.15l-1.13-.31c-.38-.12-.75-.28-1.12-.41a19.26,19.26,0,0,1-2.22-1,19.72,19.72,0,0,1-6.81-5.85c0,.07,0,.11-.14-.13A19.19,19.19,0,0,1,3.75,30.6c-.21-.35-.37-.75-.56-1.14a9.55,9.55,0,0,1-.53-1.22c-.09-.25-.19-.5-.28-.74a1.28,1.28,0,0,0-.13-.26c-.27-.77-.4-1.49-.58-2.13A19.9,19.9,0,0,1,13.54,2.46a19,19,0,0,1,6-1.47,20.09,20.09,0,0,1,9.51,1.65,9.85,9.85,0,0,1,2.74,1.25c1.35.78,2.5,1.67,2,1.16A25.78,25.78,0,0,1,37.36,8.7a5.74,5.74,0,0,1,1.21,1.39A13.15,13.15,0,0,1,39.7,12,19,19,0,0,1,41,15l.43,1.68c.11.6.19,1.22.28,1.8.13,1.15.11,2.15.16,2.52.09,1.17,0-2.73.06-1.57a20,20,0,0,0-1.23-5.73,24.49,24.49,0,0,0-1.18-2.68A23.16,23.16,0,0,0,38,8.61,21,21,0,0,0,1.79,12.52,21.25,21.25,0,0,0,.07,19.39a20.8,20.8,0,0,0,.87,7.88,21.07,21.07,0,0,0,3.87,7.12,20.56,20.56,0,0,0,5.85,4.88,22.07,22.07,0,0,0,6,2.29,23.37,23.37,0,0,0,4.62.43l.84,0A20.49,20.49,0,0,0,35.94,35.6a21.2,21.2,0,0,0,3.38-4.85c-.47.78-.93,1.5-1.37,2.09a19.34,19.34,0,0,0,2.23-4.22c.74-2,.69-2.49.61-2.23s-.15.44-.28.8L40,28.34c-.22.53-.22.43-.24.4s0,0-.47.83a12,12,0,0,0,.63-1.51,11.74,11.74,0,0,0,.51-1.55,3.64,3.64,0,0,0-.15.53c-.12.33-.29.78-.44,1.21-.28.87-.71,1.58-.53,1.16a18.75,18.75,0,0,0,1.28-3.74c-.11.2-.32,1.31-.73,2.28a8.28,8.28,0,0,1-.78,1.74A15.43,15.43,0,0,0,40.42,26c0-.05-.31,1.22-.57,1.81a16.32,16.32,0,0,0,.92-4c0-.59,0-.22-.38,1.54.16-.61.24-1.36.37-2.12s.1-1.54.14-2.2h0c-.06.66-.07,1.81-.18,2.41.11-.74.1-1.5.15-2.25l0,.39c0,.56,0,1.13-.13,1.71.08-.5.07-1,.11-1.5,0,.4-.09.83-.14,1.27a23.75,23.75,0,0,1-1.07,4.27,19.68,19.68,0,0,1-6.66,9.23,18.73,18.73,0,0,1-5,2.79A18.83,18.83,0,0,1,22.31,40.58Z"/><path class="cls-1" d="M15.71,27.29s0,.08-.08,0a4.83,4.83,0,0,1-.12-.85h0a5.94,5.94,0,0,1,0-.73,5.43,5.43,0,0,1,.21-1.33s0,0,0,0a4.44,4.44,0,0,1,.29-.68l.05-.11a.06.06,0,0,0,0-.06q.09-.16.18-.3a15.44,15.44,0,0,0,1-2.15,3.9,3.9,0,0,0-.1-2.63,4.69,4.69,0,0,0-.57-.95c-.3-.43-.72-.92-1-1.3,0,.07-.26-.11-.44-.3s-.33-.4-.35-.25c-.16-.31-.24-.83-.29-.84s-.41-.31-.37-1.32a6.24,6.24,0,0,1,.31-1.06c0-.21-.26.43-.23.22a4.59,4.59,0,0,0-.24,2.18,4.37,4.37,0,0,0,.89,2,11.66,11.66,0,0,1,1.07,1.4,2.71,2.71,0,0,1,.38,1.45,2.37,2.37,0,0,1-.19,1.13c-.22.55-.69,1.24-1.14,2.07a6.51,6.51,0,0,0-.77,2.68,7.21,7.21,0,0,0,.19,2l0,.15A7.43,7.43,0,0,0,15.53,30q.32.39.66.75L16,30.39a3.92,3.92,0,0,0,.48.63c.49.52.3.15.23-.13s.13,0,0-.29l.33.43c.05,0-.43-.51-.27-.44a6.54,6.54,0,0,0,.4.52c0-.1-.44-.6-.36-.62s.3.53.38.52-.11-.18-.18-.26c.42.51.73.72.4.22.13.16.3.4.45.56h0l-.25-.32.24.29,0-.07-.16-.23.15.19c0-.06,0-.13-.08-.2-.15-.26-.27-.52-.36-.64A10.33,10.33,0,0,1,15.71,27.29Z"/><path class="cls-1" d="M27.11,22.17s0,.06-.07,0-.12-.33-.24-.47h0l-.17-.41a7.16,7.16,0,0,1-.36-.66s0,0,0,0a1.55,1.55,0,0,1-.1-.36l0-.06h0a1.11,1.11,0,0,1,0-.17,3.22,3.22,0,0,1,.18-2.22,2.84,2.84,0,0,1,.23-.5,7.56,7.56,0,0,1,.58-.69c-.15-.06.18-.64,0-.63.1-.14.24-.36.2-.39s-.17-.28-.14-.68a2.25,2.25,0,0,0,.11-.43c0-.09-.13.18-.16.09a3.44,3.44,0,0,1-.76,1.48A7.54,7.54,0,0,0,25,18a4.79,4.79,0,0,0-.17,2.48,9.36,9.36,0,0,0,1.1,2.34l0,.06c.22.38.47.81.66,1.1l.28.41v-.22a2.1,2.1,0,0,0,.14.38c.16.33.19.12.26-.05s.12,0,.13-.17l.07.29c.05,0-.12-.35,0-.29s.09.23.11.36c.05-.06-.09-.42,0-.42s0,.36.09.36,0-.12,0-.18c.11.37.21.58.23.2,0,.13,0,.31.05.44h0l0-.24,0,.23,0-.05a1,1,0,0,0,0-.17l0,.15a.58.58,0,0,0,0-.14,1.66,1.66,0,0,0,0-.47A7,7,0,0,0,27.11,22.17Z"/><path class="cls-1" d="M28,27.8l-.07,0s.07,0,.05,0H27.9l.08,0a.25.25,0,0,0,0-.07h0s0,0,0,0h0l0,0h0l-.25-.25-.09-.06s0,0,0-.06c-.16,0-.23-.09-.39-.12,0,0,0,0,0,0a1.38,1.38,0,0,1-.36-.12s.05,0,0,0a.68.68,0,0,1-.14,0c-.07.07,0,.16,0,.25s0,.24,0,.28h0s0,.06,0,.1l.11.07h.08s0,0,0,0a.83.83,0,0,0,.24.08c.05,0,.12,0,.17,0v0s0,0,.05,0,0,0,0,0,0,0,.09,0-.09,0,0,0a0,0,0,0,0,0,0s.08.06.16.07l0,0h.06l.07,0c.05,0,.13,0,.13,0A.33.33,0,0,0,28,27.8Z"/></g></g></svg>