<svg width="19" height="21" viewBox="0 0 19 21" fill="none" xmlns="http://www.w3.org/2000/svg">
<path fill-rule="evenodd" clip-rule="evenodd" d="M9.74878 1.65967C8.91998 1.65967 8.12512 1.98891 7.53907 2.57496C6.95302 3.16101 6.62378 3.95587 6.62378 4.78467V5.40967H12.8738V4.78467C12.8738 3.95587 12.5445 3.16101 11.9585 2.57496C11.3724 1.98891 10.5776 1.65967 9.74878 1.65967V1.65967ZM14.1238 5.40967V4.78467C14.1238 3.62435 13.6628 2.51155 12.8424 1.69108C12.0219 0.870604 10.9091 0.409668 9.74878 0.409668C8.58846 0.409668 7.47566 0.870604 6.65519 1.69108C5.83472 2.51155 5.37378 3.62435 5.37378 4.78467V5.40967H0.998779V17.9097C0.998779 18.5727 1.26217 19.2086 1.73101 19.6774C2.19985 20.1463 2.83574 20.4097 3.49878 20.4097H15.9988C16.6618 20.4097 17.2977 20.1463 17.7665 19.6774C18.2354 19.2086 18.4988 18.5727 18.4988 17.9097V5.40967H14.1238ZM2.24878 6.65967V17.9097C2.24878 18.2412 2.38048 18.5591 2.6149 18.7936C2.84932 19.028 3.16726 19.1597 3.49878 19.1597H15.9988C16.3303 19.1597 16.6482 19.028 16.8827 18.7936C17.1171 18.5591 17.2488 18.2412 17.2488 17.9097V6.65967H2.24878Z" fill="white"/>
</svg>
