<svg width="21" height="21" viewBox="0 0 21 21" fill="none" xmlns="http://www.w3.org/2000/svg">
<path fill-rule="evenodd" clip-rule="evenodd" d="M14.3321 5.40967C14.3321 6.29372 13.9809 7.14157 13.3558 7.76669C12.7307 8.39181 11.8828 8.743 10.9988 8.743C10.1147 8.743 9.26688 8.39181 8.64176 7.76669C8.01664 7.14157 7.66545 6.29372 7.66545 5.40967C7.66545 4.52561 8.01664 3.67777 8.64176 3.05265C9.26688 2.42752 10.1147 2.07633 10.9988 2.07633C11.8828 2.07633 12.7307 2.42752 13.3558 3.05265C13.9809 3.67777 14.3321 4.52561 14.3321 5.40967ZM10.9988 10.4097C12.3249 10.4097 13.5966 9.88288 14.5343 8.9452C15.472 8.00752 15.9988 6.73575 15.9988 5.40967C15.9988 4.08359 15.472 2.81182 14.5343 1.87413C13.5966 0.936452 12.3249 0.409668 10.9988 0.409668C9.6727 0.409668 8.40093 0.936452 7.46325 1.87413C6.52556 2.81182 5.99878 4.08359 5.99878 5.40967C5.99878 6.73575 6.52556 8.00752 7.46325 8.9452C8.40093 9.88288 9.6727 10.4097 10.9988 10.4097ZM20.9988 18.743C20.9988 20.4097 19.3321 20.4097 19.3321 20.4097H2.66545C2.66545 20.4097 0.998779 20.4097 0.998779 18.743C0.998779 17.0763 2.66545 12.0763 10.9988 12.0763C19.3321 12.0763 20.9988 17.0763 20.9988 18.743ZM19.3321 18.7363C19.3304 18.3263 19.0754 17.093 17.9454 15.963C16.8588 14.8763 14.8138 13.743 10.9988 13.743C7.18211 13.743 5.13878 14.8763 4.05211 15.963C2.92211 17.093 2.66878 18.3263 2.66545 18.7363H19.3321Z" fill="white"/>
</svg>
