<svg xmlns="http://www.w3.org/2000/svg" viewBox="0 0 41.93 41.99"><defs><style>.cls-1{fill:#f7f7f7;}</style></defs><g id="Слой_2" data-name="Слой 2"><g id="Слой_4" data-name="Слой 4"><path class="cls-1" d="M22.31,40.58s.4,0-.23.08a19.05,19.05,0,0,1-5.58-.51h-.15l-1.13-.31c-.38-.12-.75-.28-1.12-.41a19.26,19.26,0,0,1-2.22-1,19.72,19.72,0,0,1-6.81-5.85c0,.07,0,.11-.14-.13A19.19,19.19,0,0,1,3.75,30.6c-.21-.35-.37-.75-.56-1.14a9.55,9.55,0,0,1-.53-1.22l-.28-.74a1.28,1.28,0,0,0-.13-.26c-.27-.77-.4-1.49-.58-2.13A19.9,19.9,0,0,1,13.54,2.46a19,19,0,0,1,6-1.47,20.09,20.09,0,0,1,9.51,1.65,9.85,9.85,0,0,1,2.74,1.25c1.35.78,2.5,1.67,2,1.16A25.78,25.78,0,0,1,37.36,8.7a5.74,5.74,0,0,1,1.21,1.39A13.15,13.15,0,0,1,39.7,12,19,19,0,0,1,41,15l.43,1.68c.11.6.19,1.22.28,1.8.13,1.15.11,2.15.16,2.52.09,1.17,0-2.73.06-1.57a20,20,0,0,0-1.23-5.73,24.49,24.49,0,0,0-1.18-2.68A23.16,23.16,0,0,0,38,8.61,21,21,0,0,0,1.79,12.52,21.25,21.25,0,0,0,.07,19.39a20.8,20.8,0,0,0,.87,7.88,21.07,21.07,0,0,0,3.87,7.12,20.56,20.56,0,0,0,5.85,4.88,22.07,22.07,0,0,0,6,2.29,23.37,23.37,0,0,0,4.62.43l.84,0A20.49,20.49,0,0,0,35.94,35.6a21.2,21.2,0,0,0,3.38-4.85c-.47.78-.93,1.5-1.37,2.09a19.34,19.34,0,0,0,2.23-4.22c.74-2,.69-2.49.61-2.23s-.15.44-.28.8L40,28.34c-.22.53-.22.43-.24.4s0,0-.47.83a10.71,10.71,0,0,0,.63-1.51,11.74,11.74,0,0,0,.51-1.55,3.64,3.64,0,0,0-.15.53c-.12.33-.29.78-.44,1.21-.28.87-.71,1.58-.53,1.16a18.75,18.75,0,0,0,1.28-3.74c-.11.2-.32,1.31-.73,2.28a8.28,8.28,0,0,1-.78,1.74A15.43,15.43,0,0,0,40.42,26c0-.05-.31,1.22-.57,1.81a16.32,16.32,0,0,0,.92-4c0-.59,0-.22-.38,1.54.16-.61.24-1.36.37-2.12s.1-1.54.14-2.2h0c-.06.66-.07,1.81-.18,2.41.11-.74.1-1.5.15-2.25l0,.39c0,.56,0,1.13-.13,1.71.08-.5.07-1,.11-1.5,0,.4-.09.83-.14,1.27a23.75,23.75,0,0,1-1.07,4.27,19.68,19.68,0,0,1-6.66,9.23,18.73,18.73,0,0,1-5,2.79A18.83,18.83,0,0,1,22.31,40.58Z"/><path class="cls-1" d="M16.34,29s0,.09-.08,0c-.31-.23-.5-.48-.8-.73l-.05,0c-.19-.23-.42-.45-.6-.71a11.82,11.82,0,0,1-1.08-1.37s0,0-.05,0c-.13-.21-.28-.51-.45-.81l-.07-.14a.05.05,0,0,0-.05,0l-.17-.4a11.33,11.33,0,0,1-1.17-5.25,7,7,0,0,1,.05-1.22,9.56,9.56,0,0,1,.52-1.85c-.2,0,.28-1.32,0-1.13a9.44,9.44,0,0,0,.45-.92c-.06-.14-.07-.51.53-1.44.24-.35.73-.8.82-.93s-.45.35-.32.14A11.84,11.84,0,0,0,10.73,21,12.83,12.83,0,0,0,12,25.67a12,12,0,0,0,3.41,4.25l.14.1a9.11,9.11,0,0,0,2.84,1.42c.4.07.8.15,1.2.19a4.43,4.43,0,0,1-.47-.2,3.38,3.38,0,0,0,1,.17c.86.08.38-.08.08-.25s.1-.1-.25-.21l.64.11s-.79-.1-.6-.15a6.49,6.49,0,0,0,.77.11c-.08-.05-.87-.16-.82-.21s.69.2.75.13a2.29,2.29,0,0,0-.36-.08c.78.1,1.21,0,.51-.11.24,0,.58.06.84.07h0L21.12,31l.44,0-.08,0c-.11,0-.21,0-.33,0l.29,0-.24-.09c-.34-.07-.66-.15-.83-.2A9.54,9.54,0,0,1,16.34,29Z"/><path class="cls-1" d="M20.26,26.53s0-.06,0-.06.1.11.18.1l0,0,.15.11a1.73,1.73,0,0,0,.32,0s0,0,0,0a.55.55,0,0,1,.17,0h0a0,0,0,0,0,0,0h.08a2.73,2.73,0,0,0,.87-.39.71.71,0,0,1,.15-.15,1.52,1.52,0,0,1,.28-.09c-.07-.14.07-.3,0-.43,0,0,.11-.06.09-.09a.65.65,0,0,1-.09-.4s.09,0,.08-.06-.1,0-.11-.08a2.12,2.12,0,0,1-.74.33.88.88,0,0,1-.47.11,1.19,1.19,0,0,1-.52-.11h0a.55.55,0,0,0-.31-.08l-.17,0v.09s-.07,0-.1,0-.12.09-.15.21-.09.09-.07.16l-.07-.06s.1,0,0,.09-.07,0-.1-.06.09.1.05.15,0-.14-.09-.08,0,0,0,.05-.22-.06-.18.09a1.06,1.06,0,0,0-.1-.12h0a.18.18,0,0,0,0,.07l-.06-.06v0a.1.1,0,0,0,0,.05l0,0a.28.28,0,0,0,0,.09c0,.08,0,.18.05.2A2.17,2.17,0,0,0,20.26,26.53Z"/></g></g></svg>