<svg xmlns="http://www.w3.org/2000/svg" viewBox="0 0 41.93 41.99"><defs><style>.cls-1{fill:#f7f7f7;}</style></defs><g id="Слой_2" data-name="Слой 2"><g id="Слой_7" data-name="Слой 7"><path class="cls-1" d="M22.31,40.58s.4,0-.23.08a19.05,19.05,0,0,1-5.58-.51h-.15l-1.13-.31c-.38-.12-.75-.28-1.12-.41a19.26,19.26,0,0,1-2.22-1,19.72,19.72,0,0,1-6.81-5.85c0,.07,0,.11-.14-.13A19.19,19.19,0,0,1,3.75,30.6c-.21-.35-.37-.75-.56-1.14a9.55,9.55,0,0,1-.53-1.22l-.28-.74a1.28,1.28,0,0,0-.13-.26c-.27-.77-.4-1.49-.58-2.13A19.9,19.9,0,0,1,13.54,2.46a19,19,0,0,1,6-1.47,20.09,20.09,0,0,1,9.51,1.65,9.85,9.85,0,0,1,2.74,1.25c1.35.78,2.5,1.67,2,1.16A25.78,25.78,0,0,1,37.36,8.7a5.74,5.74,0,0,1,1.21,1.39A13.15,13.15,0,0,1,39.7,12,19,19,0,0,1,41,15l.43,1.68c.11.6.19,1.22.28,1.8.13,1.15.11,2.15.16,2.52.09,1.17,0-2.73.06-1.57a20,20,0,0,0-1.23-5.73,24.49,24.49,0,0,0-1.18-2.68A23.16,23.16,0,0,0,38,8.61,21,21,0,0,0,1.79,12.52,21.25,21.25,0,0,0,.07,19.39a20.8,20.8,0,0,0,.87,7.88,21.07,21.07,0,0,0,3.87,7.12,20.56,20.56,0,0,0,5.85,4.88,22.07,22.07,0,0,0,6,2.29,23.37,23.37,0,0,0,4.62.43l.84,0A20.49,20.49,0,0,0,35.94,35.6a21.2,21.2,0,0,0,3.38-4.85c-.47.78-.93,1.5-1.37,2.09a19.34,19.34,0,0,0,2.23-4.22c.74-2,.69-2.49.61-2.23s-.15.44-.28.8L40,28.34c-.22.53-.22.43-.24.4s0,0-.47.83a12,12,0,0,0,.63-1.51,11.74,11.74,0,0,0,.51-1.55,3.64,3.64,0,0,0-.15.53c-.12.33-.29.78-.44,1.21-.28.87-.71,1.58-.53,1.16a18.75,18.75,0,0,0,1.28-3.74c-.11.2-.32,1.31-.73,2.28a8.28,8.28,0,0,1-.78,1.74A15.43,15.43,0,0,0,40.42,26c0-.05-.31,1.22-.57,1.81a16.32,16.32,0,0,0,.92-4c0-.59,0-.22-.38,1.54.16-.61.24-1.36.37-2.12s.1-1.54.14-2.2h0c-.06.66-.07,1.81-.18,2.41.11-.74.1-1.5.15-2.25l0,.39c0,.56,0,1.13-.13,1.71.08-.5.07-1,.11-1.5,0,.4-.09.83-.14,1.27a23.75,23.75,0,0,1-1.07,4.27,19.68,19.68,0,0,1-6.66,9.23,18.73,18.73,0,0,1-5,2.79A18.83,18.83,0,0,1,22.31,40.58Z"/><path class="cls-1" d="M21,13.58V28.49l-5.42-4.06m8.3,1.9,2.54-1.9"/><path class="cls-1" d="M24.88,26.45s0,0,0-.06.12,0,.14-.05l0,0,.14,0,.17-.17s0,0,0,0,.06,0,.1-.07V26l0,0c.13-.21.25-.43.38-.67a.67.67,0,0,1,.07-.17.9.9,0,0,1,.2-.14c-.1-.12,0-.29-.13-.4,0,0,.1-.07.08-.11a.45.45,0,0,1-.09-.4c0-.05.13-.05.13-.08s-.11,0-.12-.09a7.23,7.23,0,0,0-.89.68,4.77,4.77,0,0,1-.94.79l0,0a.68.68,0,0,0-.26.27,1.29,1.29,0,0,1,0,.19l.1,0s-.08.05-.08.09.05.14.15.21.07.1.13.11l-.07.05s.07-.08.1,0-.05.05-.08.07.11-.05.14,0-.12,0-.08.05,0,0,.05,0-.07.17.05.18-.08,0-.1,0h0l.06,0-.05,0,0,0h.05l0,0,.07,0a.86.86,0,0,0,.17,0A3.3,3.3,0,0,0,24.88,26.45Z"/><path class="cls-1" d="M20.24,18.77s.06-.07.07,0c0,.35-.06.64,0,1l.05,0c0,.26-.05.57-.07.85,0,.52,0,1,0,1.59,0,0,0,0,0,0a8.08,8.08,0,0,1,0,.84v.14s0,.05,0,.05v.39c0,.75.09,1.53.14,2.33l0,.6a3.3,3.3,0,0,0,0,.49c0,.24.05.48.07.73h0a2.32,2.32,0,0,1-.51-.25l-.25-.18-.34-.27-.66-.51c0,.17-1.06-.5-1-.22a4.56,4.56,0,0,0-.71-.49c-.15.07-.45,0-1.21-.43-.29-.19-.68-.56-.8-.61s.31.35.13.27c.86.67,1.73,1.32,2.6,2l3.76,2.79c0-.75,0-1.52,0-2.29,0-.36,0-1,0-1.76s0-1.59,0-2.48c0-1.8,0-3.67,0-4.44v-.14c0-.84,0-1.85-.07-2.56,0-.3-.08-.65-.12-1l-.08.42a5.51,5.51,0,0,0,0-.8c-.07-.71-.15-.31-.26,0s-.12-.07-.17.24v-.56c-.05,0,0,.69-.05.53s0-.45,0-.68c-.06.08,0,.78-.08.74s.08-.62,0-.67a2,2,0,0,0,0,.33c0-.69-.09-1.07-.18-.44,0-.22,0-.53,0-.76h0l0,.42v-.4l0,.07c0,.1,0,.2,0,.3v-.26c0,.06-.05.14-.08.22a7.53,7.53,0,0,0-.12.77C20.27,16.06,20.25,17.42,20.24,18.77Z"/></g></g></svg>