<svg width="20" height="21" viewBox="0 0 20 21" fill="none" xmlns="http://www.w3.org/2000/svg">
<path fill-rule="evenodd" clip-rule="evenodd" d="M13.051 13.4625C13.1671 13.3463 13.305 13.2541 13.4568 13.1912C13.6085 13.1283 13.7712 13.0959 13.9354 13.0959C14.0997 13.0959 14.2624 13.1283 14.4141 13.1912C14.5659 13.2541 14.7037 13.3463 14.8198 13.4625L19.6323 18.275C19.8669 18.5094 19.9987 18.8274 19.9988 19.159C19.999 19.4906 19.8673 19.8086 19.633 20.0432C19.3986 20.2777 19.0806 20.4096 18.749 20.4097C18.4174 20.4098 18.0994 20.2782 17.8648 20.0438L13.0523 15.2313C12.9361 15.1152 12.8439 14.9773 12.781 14.8256C12.7181 14.6738 12.6857 14.5112 12.6857 14.3469C12.6857 14.1826 12.7181 14.0199 12.781 13.8682C12.8439 13.7165 12.9361 13.5786 13.0523 13.4625H13.051Z" fill="white"/>
<path fill-rule="evenodd" clip-rule="evenodd" d="M8.12505 15.4098C9.02789 15.4098 9.92189 15.2319 10.756 14.8864C11.5901 14.5409 12.348 14.0345 12.9864 13.3961C13.6248 12.7577 14.1313 11.9998 14.4768 11.1657C14.8223 10.3316 15.0001 9.43756 15.0001 8.53472C15.0001 7.63187 14.8223 6.73787 14.4768 5.90375C14.1313 5.06963 13.6248 4.31173 12.9864 3.67333C12.348 3.03492 11.5901 2.52851 10.756 2.18301C9.92189 1.8375 9.02789 1.65968 8.12505 1.65968C6.30167 1.65968 4.55298 2.38401 3.26366 3.67333C1.97434 4.96265 1.25001 6.71134 1.25001 8.53472C1.25001 10.3581 1.97434 12.1068 3.26366 13.3961C4.55298 14.6854 6.30167 15.4098 8.12505 15.4098ZM16.2501 8.53472C16.2501 10.6896 15.3941 12.7563 13.8703 14.28C12.3466 15.8037 10.2799 16.6598 8.12505 16.6598C5.97015 16.6598 3.90351 15.8037 2.37977 14.28C0.856029 12.7563 0 10.6896 0 8.53472C0 6.37982 0.856029 4.31318 2.37977 2.78944C3.90351 1.2657 5.97015 0.409668 8.12505 0.409668C10.2799 0.409668 12.3466 1.2657 13.8703 2.78944C15.3941 4.31318 16.2501 6.37982 16.2501 8.53472Z" fill="white"/>
</svg>
