<svg xmlns="http://www.w3.org/2000/svg" viewBox="0 0 41.93 41.99"><defs><style>.cls-1{fill:#f7f7f7;}</style></defs><g id="Слой_2" data-name="Слой 2"><g id="Слой_3" data-name="Слой 3"><path class="cls-1" d="M22.31,40.58s.4,0-.23.08a19.05,19.05,0,0,1-5.58-.51h-.15l-1.13-.31c-.38-.12-.75-.28-1.12-.41a19.26,19.26,0,0,1-2.22-1,19.72,19.72,0,0,1-6.81-5.85c0,.07,0,.11-.14-.13A19.19,19.19,0,0,1,3.75,30.6c-.21-.35-.37-.75-.56-1.14a9.55,9.55,0,0,1-.53-1.22l-.28-.74a1.28,1.28,0,0,0-.13-.26c-.27-.77-.4-1.49-.58-2.13A19.9,19.9,0,0,1,13.54,2.46a19,19,0,0,1,6-1.47,20.09,20.09,0,0,1,9.51,1.65,9.85,9.85,0,0,1,2.74,1.25c1.35.78,2.5,1.67,2,1.16A25.78,25.78,0,0,1,37.36,8.7a5.74,5.74,0,0,1,1.21,1.39A13.15,13.15,0,0,1,39.7,12,19,19,0,0,1,41,15l.43,1.68c.11.6.19,1.22.28,1.8.13,1.15.11,2.15.16,2.52.09,1.17,0-2.73.06-1.57a20,20,0,0,0-1.23-5.73,24.49,24.49,0,0,0-1.18-2.68A23.16,23.16,0,0,0,38,8.61,21,21,0,0,0,1.79,12.52,21.25,21.25,0,0,0,.07,19.39a20.8,20.8,0,0,0,.87,7.88,21.07,21.07,0,0,0,3.87,7.12,20.56,20.56,0,0,0,5.85,4.88,22.07,22.07,0,0,0,6,2.29,23.37,23.37,0,0,0,4.62.43l.84,0A20.49,20.49,0,0,0,35.94,35.6a21.2,21.2,0,0,0,3.38-4.85c-.47.78-.93,1.5-1.37,2.09a19.34,19.34,0,0,0,2.23-4.22c.74-2,.69-2.49.61-2.23s-.15.44-.28.8L40,28.34c-.22.53-.22.43-.24.4s0,0-.47.83a12,12,0,0,0,.63-1.51,11.74,11.74,0,0,0,.51-1.55,3.64,3.64,0,0,0-.15.53l-.44,1.21c-.28.87-.71,1.58-.53,1.16a18.75,18.75,0,0,0,1.28-3.74c-.11.2-.32,1.31-.73,2.28a8.28,8.28,0,0,1-.78,1.74A15.43,15.43,0,0,0,40.42,26c0-.05-.31,1.22-.57,1.81a16.32,16.32,0,0,0,.92-4c0-.59,0-.22-.38,1.54.16-.61.24-1.36.37-2.12s.1-1.54.14-2.2h0c-.06.66-.07,1.81-.18,2.41.11-.74.1-1.5.15-2.25l0,.39c0,.56,0,1.13-.13,1.71.08-.5.07-1,.11-1.5,0,.4-.09.83-.14,1.27a23.75,23.75,0,0,1-1.07,4.27,19.68,19.68,0,0,1-6.66,9.23,18.73,18.73,0,0,1-5,2.79A18.83,18.83,0,0,1,22.31,40.58Z"/><path class="cls-1" d="M20.84,27.26s.05.09-.07,0a4.2,4.2,0,0,1-.95-.65h-.06a4.75,4.75,0,0,1-.62-.77,4.65,4.65,0,0,1-.82-1.65s0,0,0,0a4.42,4.42,0,0,1-.11-1v-.17a.1.1,0,0,0,0-.06,2.16,2.16,0,0,1,.05-.46,4.74,4.74,0,0,1,3.67-4.14,4.87,4.87,0,0,1,1.36-.16,4.69,4.69,0,0,1,2,.7c0-.1.35,0,.67.21s.59.37.53.2c.34.32.74.89.79.9s.61.2,1.06,1.46a6.77,6.77,0,0,1,.19,1.49c.05.29.06-.68.12-.39a5.86,5.86,0,0,0-3-4.78A6,6,0,0,0,20,18a6.83,6.83,0,0,0-1.71,1.43,5.94,5.94,0,0,0-1.35,3.44A5.81,5.81,0,0,0,18,26.56,6,6,0,0,0,20,28.37l.2.09a5.53,5.53,0,0,0,1.92.54A5.32,5.32,0,0,0,24,28.83a5.48,5.48,0,0,0,1.32-.62,4.29,4.29,0,0,1-.59.18,3.78,3.78,0,0,0,1-.54c.79-.66.27-.37-.1-.25s0-.14-.36,0a5,5,0,0,0,.61-.41s-.73.53-.61.35a3.29,3.29,0,0,0,.72-.52c-.1,0-.83.57-.83.48s.73-.38.72-.48a2.77,2.77,0,0,0-.35.24c.7-.55.94-1,.33-.48a4.66,4.66,0,0,0,.66-.67h0a4.43,4.43,0,0,1-.36.38,3.73,3.73,0,0,0,.32-.36l-.08.05-.25.26a2.41,2.41,0,0,0,.21-.24l-.23.16a7.61,7.61,0,0,1-.77.51A4.58,4.58,0,0,1,20.84,27.26Z"/><path class="cls-1" d="M16.68,17.49s0,.05,0,.07-.35-.08-.53-.09l0,0a1.75,1.75,0,0,1-.4-.22,1.89,1.89,0,0,1-.66-.53s0,0,0,0a1.42,1.42,0,0,1-.21-.41l0-.07H14.7a2.07,2.07,0,0,1,0-.22,2.09,2.09,0,0,1,1.06-2.47,1.77,1.77,0,0,1,.66-.25,2.06,2.06,0,0,1,1.1.2c0-.08.22-.06.41,0s.38.12.36,0c.21.17.46.47.5.47s.46,0,.8.76a3.18,3.18,0,0,1,.12.89c.06.18.08-.41.13-.24a3.21,3.21,0,0,0-2-2.79,3.31,3.31,0,0,0-3.4.6,3.89,3.89,0,0,0-.77,1.13,3.29,3.29,0,0,0-.1,2.25A3.2,3.2,0,0,0,15,18.43a3.29,3.29,0,0,0,1.61.42h.13a2.85,2.85,0,0,0,2.05-1,3.07,3.07,0,0,0,.41-.78,2.27,2.27,0,0,1-.25.27,1.59,1.59,0,0,0,.29-.61c.12-.58-.05-.27-.23-.12s-.09-.08-.22.1a2.35,2.35,0,0,0,.14-.37s-.15.47-.18.33a1.52,1.52,0,0,0,.15-.44c-.06,0-.19.49-.25.44s.23-.37.16-.42a1.59,1.59,0,0,0-.08.21c.12-.45,0-.7-.09-.32a1.78,1.78,0,0,0,.07-.47h0a1.87,1.87,0,0,1,0,.25,2,2,0,0,0,0-.24l0,0,0,.18a.76.76,0,0,0,0-.15l-.07.12c-.08.18-.18.32-.22.4A1.92,1.92,0,0,1,16.68,17.49Z"/></g></g></svg>