<?xml version="1.0" encoding="UTF-8"?> <svg xmlns="http://www.w3.org/2000/svg" id="Слой_1" data-name="Слой 1" viewBox="0 0 409.69 716.25"> <defs> <style>.cls-1{fill:#4a494a;}</style> </defs> <title>logo</title> <path id="_1" data-name="1" class="cls-1" d="M325.32,319c-.1,1.22.57,2.54-.59,3.68a1.94,1.94,0,0,0-.07,1.93c.93.85.67,1.83.68,2.79a7.25,7.25,0,0,1-.7,3.63c-.29.56-1.13,1.59-.53,2.83.51,1.06.27,2.48.34,3.74,0,.1-.25.18-.28.31-1.74,5.39-1.72,5.39-.57,11.21.14.69.31,1.66,0,2.13-1.62,2.16-.85,4.8-1.5,7.18-.79,2.82-.45,6.05-.12,9.05.36,3.19-1.16,6.07-1,9.2s0,6.37,0,9.55a41.87,41.87,0,0,1,0,4.34,35.36,35.36,0,0,1-.85,4.41c-.21.91-.95,1.87-.79,2.67.75,3.7-2.4,7.34-.09,11a1.24,1.24,0,0,1-.24,1.16c-1,.81-.57,1.86-.58,2.8-.05,3.18,0,6.37,0,9.55a9.36,9.36,0,0,1-.3,2.48,23.63,23.63,0,0,0-1.46,8.09c.14,2.59.6,5.38-.14,7.76-.66,2.13-.46,4.14-.71,6.2a8.47,8.47,0,0,0,.88,4.41c-1.41,1.42-.75,3.21-.85,4.85-.08,1.3,0,2.61,0,3.91-.08,1.93.26,3.84-.77,5.76-.72,1.37-1.37,3.59-.75,4.69a6.58,6.58,0,0,1,.53,5.35c-1.18,3.39-.45,6.75-.73,10.1-.08,1,.3,2.46-.22,2.9-2,1.65,1.27,2.78.22,4.2a5,5,0,0,0,1.05.49,4,4,0,0,0,1.29,0c2-.28,3.28,1.21,4.89,1.83,1.18.46.37,2,.58,3.1.05.27,0,.66.12.8.51.46,1.07,1.09,1.66,1.16,1.16.14.7-.92.83-1.53.39-1.9-.56-3.82.7-5.81.89-1.38.68-3.45,1-5.19s1.88-3.56,0-5.38c-.12-.11,0-.58.1-.79,1.2-2,.89-4.52,2.47-6.37a5.31,5.31,0,0,0,.9-4,23.08,23.08,0,0,1,0-3.9,8.14,8.14,0,0,1,.9-3.51,6.68,6.68,0,0,0,.79-4,55.77,55.77,0,0,1,.06-6.07,12.18,12.18,0,0,1,3.12-7.39c1.42-1.44,2.78-2.34,4.79-1,.53.34,1.72.57,2,.29,1.19-1.41,2.7-.71,4-.78,2-.12,4.06,0,6.08-.07.74,0,1.87-.9,2.13-.66,1.28,1.21,2.74.57,4.1.67s2.89-.06,4.33,0c1.08.09,1.9-1.17,3.26-.12,1.13.88,2.54-.74,3.91-.75a6.73,6.73,0,0,1,2,.31c1.27.39,2.21,1.6,3.76,1.46.4,0,1.27.68,1.24,1-.23,1.94,1.58,2.83,2.09,4.38,1,2.94,1.25,3.17-.11,6.19-.82,1.83-1.14,3.33-.19,5.08a2.76,2.76,0,0,1,.27,1.18c.13,3.95-.31,7.9.81,11.82.68,2.37-.22,4.91.78,7.49.86,2.22,0,4.91.91,7.43a25,25,0,0,1,.75,6.13c.14,2,1.92,4.1.28,6.19,1.76,3.53.4,7.3.81,10.94.11,1-.32,2.35.19,2.92,1.08,1.21.45,2.47.69,3.67a30.94,30.94,0,0,1,.83,4c.23,3.65-.25,7.3.81,11,.54,1.87.09,4,.09,6s.05,3.76,0,5.64,1.26,3.64.94,5.73a42.21,42.21,0,0,0-.06,6.06c0,1.89,0,3.77,0,5.65,0,1.67-.18,3.37.87,4.85-1.89,1.64-.05,3.28,0,4.92.06,3.47-.1,7,0,10.41s.53,6.71.84,10.06c.21,2.2-.54,4.48.78,6.64a2.29,2.29,0,0,1-.47,2.77c-.24.22-.41,1-.27,1.12,1.8,1.6.45,4,1.51,5.93.9,1.69.18,4.24.18,6.41a7.13,7.13,0,0,0,0,1.73,62,62,0,0,1,1.81,11.43,8.66,8.66,0,0,0,3,6,9,9,0,0,0,7.4,1.91c.75-.16,1.73-.93,2.15-.67,1.78,1.07,3.22.7,5.1,0,2.83-1,4.15-1.87,2.92-3.92-.92-1.55.21-3.56-1.56-4.59.33-2.22-.35-4.43.54-6.72.73-1.86,1-4.11-.94-5.89-.48-.43-.43-1.56-.46-2.37-.09-3.66.31-7.35-.87-10.93a18.17,18.17,0,0,1-.85-3.55c-.27-2.2.44-4.48-.83-6.62-.33-.55.15-1.6.29-2.41.1-.51.54-1.28.37-1.44-1.42-1.35-.42-3-.72-4.5a19.19,19.19,0,0,1-.82-4.42c.25-6.13-1.46-12.14-1-18.31.18-2.31.62-4.75-.73-7a3.7,3.7,0,0,1,0-3c1.15-2.44.76-4.62.09-7.16s-1.54-5.1-1.05-7.85c.32-1.79.31-3.63.5-5.45s-.79-3.62-.52-5.55a42.42,42.42,0,0,0,.05-5.64c0-1.88.53-4-.14-5.58-.78-1.89.47-3.29.25-5-.29-2.19-.49-4.38-.87-6.59-.48-2.87-.24-5.81-.84-8.76-.65-3.25-.14-6.68-.9-10-.64-2.82-.17-5.81-.77-8.78-.43-2.1-1.23-4.27-1.09-6.54s-.54-4.43-.7-6.6c-.36-4.73-1.23-9.35-1.9-14-.09-.59-.74-1.28-.58-1.7,1.81-4.49-.3-8.78-.7-13.14-.1-1.12,1.11-2,.39-2.87-1.34-1.66-.65-3.53-.82-5.31-.06-.57.23-1.39-.06-1.69a4,4,0,0,1-.82-3.16c0-1,.42-2.42-.08-3-1.13-1.18,0-2,.14-2.83.46-4.43-1.19-8.68-1-13.07-1.61-.84.75-1.76,0-2.31-1.35-1,0-2.39-.38-3-.7-1.17-.32-2.23-.42-3.31-.13-1.29,0-2.61,0-3.91,0-1.15.41-2.56-.09-3.42-1.11-1.9-.59-3.84-.8-5.76s-.67-4.1-.83-6.16c-.36-4.65.25-9.29-.75-14-.93-4.37-.67-9-1-13.5-.11-1.34-.79-2.65-.78-4a28.7,28.7,0,0,1,.79-4.42c.09-.56.25-1.33,0-1.7-1.23-1.66-.65-3.53-.84-5.31s-.62-3.81-.84-5.72c-.48-4.06.94-8.26-.86-12.23a.93.93,0,0,1,.19-.77,5.48,5.48,0,0,0,.51-5.32c-1-2.69-.48-5.31-.71-7.94-.07-.87,0-1.74,0-3-.25-3.9.87-8.36-1.71-12.35-.2-.31,0-.86,0-1.29-.24-6.25.54-12.52-.8-18.75-.58-2.7.11-5.53-.8-8.35-.67-2.1,0-4.59-.16-6.9s-.62-4.68-.83-7c-.37-4.36,0-8.7-.69-13.12-1-6.87-.77-13.91-1.05-20.88,0-1,.37-2.26-.08-3-1.32-2.15-.53-4.43-.8-6.63s-.64-4.38-.84-6.58c-.13-1.44.51-3.23-.15-4.26-1-1.64.38-2.74.25-4.15s-1-2.59-1-4c0-2.17.1-4.34,0-6.5s-.56-4.11-.84-6.16a48.77,48.77,0,0,0-1.06-7.38c-.91-3.08-.91-6.24-1.49-9.34a17.24,17.24,0,0,1,0-4.76c.14-1.49.67-2.94.8-4.42.15-1.73,0-3.47,0-5.21v-4.77c-2.15-1.5.83-3,0-4.51-.24-.46.15-1.36-.14-1.65-1.39-1.36-.89-3.07-.67-4.47a25.64,25.64,0,0,0,0-5.81c-.46-8,.6-16-.84-24-.51-2.8-.06-5.77-.09-8.66a13.1,13.1,0,0,0-.28-2.49,9.5,9.5,0,0,0-1-3.48c-1-1.42-.36-2.31.38-3.38.11-.17,0-.55-.12-.8a24.89,24.89,0,0,1-1.6-9.32c0-.58.25-1.36,0-1.7-1.09-1.3-.88-2.22-.07-3.72s-.35-3.17-1.73-4.4c-1.18-1-2.17-1.79-3.64-.5a1.45,1.45,0,0,1-1.4-.22c-.84-1.2-2.12-1.21-3.32-1.52-.9-.23-2.47-.49-2.54-.92-.28-1.9-2-1.69-3-2.27-2.34-1.3-3.15-1.16-3.95.13a3.23,3.23,0,0,0,1.47,4.09,2.81,2.81,0,0,1,1.75,3c0,2.75.05,5.5,0,8.25a13.32,13.32,0,0,1-.62,4.06c-.84,2.42.26,5.3-1.05,7.82,0,.08.46.36.56.61s.35,1,.19,1.13c-2.55,2.36-1.63,5.74-2.34,8.57-.93,3.75.28,7.86-1,11.78-.31,1,1,2.55.65,3.46a7.4,7.4,0,0,0-.7,4c.29,1.65-1.09,3.06-.78,4.39a7.19,7.19,0,0,1-.05,4.11c-.38,1.18.07,2.6-.12,3.87s-.39,2.66-1.17,3.37c-1.61,1.46.78,2.14.3,3.36-1.3,3.3-.72,6.8-.82,10.22,0,.87.36,2.06-.07,2.55-1.48,1.68,0,3.88-.91,5.27-1.26,2-.55,3.88-.72,5.79a45.49,45.49,0,0,0,0,6.5,14.46,14.46,0,0,1-.87,5.3,35.51,35.51,0,0,0-1.71,6.65c-.48,4.2-.77,8.43-.9,12.66q-.54,18-.83,36.1a8.24,8.24,0,0,1-1.3,3.82c-.77,1.48-1.72,2.91-1.34,4.64.43,1.94-.77,3.13-2,3.89A4.36,4.36,0,0,0,334,230c0,2.32-.09,4.64,0,7a7.79,7.79,0,0,1-.89,4c-.79,1.62-1,5.43-1,7.19,0,3.11,1.6,6,1,9.17-.3,1.47-.69,2.93-.85,4.41-.24,2.35.52,4.82-.89,7,.35,4-.49,7.87-.78,11.8a15.71,15.71,0,0,1-1,4c-.38,1.13-1.08,2.17-1.37,3.32-.42,1.64-1.28,3.66-.69,4.93a9.23,9.23,0,0,1,.54,6.56,29.48,29.48,0,0,0-1.06,6.11c0,2.17,0,4.34,0,6.51a5,5,0,0,1-.88,3.54C325.32,316.47,325.42,317.71,325.32,319ZM403.79,582.9l.56.3c-.1.1-.21.29-.29.28a2.81,2.81,0,0,1-.58-.28ZM368.14,70.56h-.06c-.37,0-1-.26-1-.46-.21-1.8-.39-3.6-.55-5.41ZM359.2,56.75a1.13,1.13,0,0,1,.84.63,7.31,7.31,0,0,1,0,1.69c0,.43.16,1,0,1.26s-.93.79-1.2.67a2,2,0,0,1-.89-.91l-.23-3.1A2.32,2.32,0,0,1,359.2,56.75ZM335.67,412.12c.77-.93.05-2.59.58-4.06a25.65,25.65,0,0,0,1.2-7.73,28.14,28.14,0,0,1,1.61-9.77c.74-1.87,0-4.08.92-6.13.4-.88.58-2.05,1-3.06a10.82,10.82,0,0,0,.84-2.68,26.75,26.75,0,0,0,0-3.47c0-1.73.12-3.48,0-5.2a20.61,20.61,0,0,1,1-7.41l.19-3.07c-.35-2.36-.76-4.69.29-7a6.34,6.34,0,0,0,.27-2.48c0-2.75-.07-5.5.05-8.25.06-1.19.92-2.43.73-3.53a6.34,6.34,0,0,1,.06-3.21c.36-1.16-.19-2.38.76-3.64.62-.84.05-2.52.19-3.8a5.46,5.46,0,0,1,.83-1.81c1-1.94,1.34-3.78.05-5.83a5.93,5.93,0,0,1-1-4,28.13,28.13,0,0,0,0-4.77c-.07-1.84-.13-3.7,1.13-5.17a2.78,2.78,0,0,0,.26-3.49c-.81-1.14-.05-2.34-.57-3.25s1.81-1.44.29-2.51c-.18-.13.47-1.35.61-2.09a5,5,0,0,0,0-1.73,29.72,29.72,0,0,1-.79-4.42c0-1.32.79-2.66.74-4-.06-1.77.79-3.67-.74-5.35-.43-.47-.17-1.69,0-2.54.17-1.06.68-2.06.79-3.12.08-.81-.65-2.05-.31-2.42,1.32-1.4-.83-1.88-.55-3,.56-2.29-.72-4.75.81-7.07.53-.8.19-2.26.07-3.41a5.79,5.79,0,0,1,1-4.35c1.21-1.46.93-3,.62-4.43a26.7,26.7,0,0,1,.09-12.81c.34-1.27-2.15-2.47.06-3.6-1.59-2.07.53-4.08.09-6.24a28.13,28.13,0,0,1-.06-6.49c0-.63.54-1.23.67-1.88.72-3.48,1.92-6.87,1.93-10.49,0-1.22-.31-2.45.73-3.65.39-.44-.76-2-.7-3,.25-4.08-.18-8.12.62-12.27a47.58,47.58,0,0,0,1.06-14.36,7.15,7.15,0,0,1,1.1-5.18c1.24-1.71.55-3.59.6-5.38.12-4.8.33-4.84,5.18-3.65,1.46.36,1.91.53,1.84,2a19.28,19.28,0,0,0,.68,6.19c.44,1.56.89,3.66-.59,5.31a1.86,1.86,0,0,0-.09,1.65c1.45,3.12,1,6.23.32,9.42-.21,1,1.14,2.08.14,3.26a2,2,0,0,0,.19,3c.2.21-.19.94-.3,1.44-.14.67-.6,1.65-.33,1.95a4,4,0,0,1,.71,4c-.43,1.42,1.76,2,.67,3.46-.76,1,.49,1.78.71,2.69a7.15,7.15,0,0,1,.24,2.34c-.06.65-.6,1.26-.61,1.89,0,1.42-.27,3,.29,4.2.67,1.38.29,2.13-.19,3.38-.42,1.09-.82,2.84.5,4-1.46,2.81.62,5.46.33,8.32-.69,6.82,1.41,13.6.76,20.46-.17,1.79,2.35,2.84,1.37,4.77s-.33,3.92-.47,5.87a50.53,50.53,0,0,0,0,5.64c.07,1.64-.48,3.36.8,4.89a2.21,2.21,0,0,1,0,2.09c-1.36,1.67-.77,3.55-.79,5.32-.06,7.81,0,15.63,0,23.44-.05,5.83,1.49,11.58.88,17.43,1.57,3.69.59,7.57.89,11.36a16.58,16.58,0,0,0,.58,2.36c.12.53.45,1.25.22,1.59-1.39,2.14-.88,4.16,0,6.27.2.49-.11,1.19,0,1.71.53,1.67-1.49,3-.17,5,.8,1.21,0,3.39.18,5.11.16,1.92.52,3.82.84,5.72s-.78,3.71.8,5.34c.16.17-.8,1.18-.75,1.75.19,2.22-.76,4.56.65,6.66a1.16,1.16,0,0,1,.15.8c-.26,1.47-1.22,3.25-.7,4.34a10.48,10.48,0,0,1,.7,4.49c.07,1.59-.07,3.19,0,4.77.23,3.5.09,7.12,1,10.45.82,3,.63,6.25,2.3,9a2,2,0,0,1,.15,1.23c-.53,4.83,1.38,9.24,2.79,13.62.93,2.89.38,5.6.65,8.38.08.93-2,2.48-3.05,2.49-2.38,0-4.76-.18-6.76,1.56-.34.3-1.08.18-1.64.19-2.51,0-5.05-.24-7.46.85-1.09.49-2.61.44-3.37,1.2-2.39,2.4-4.81,1.5-7.33.56l-2.25-.87a10.32,10.32,0,0,1-6.31-5.61A15,15,0,0,0,337.5,426c-2.11-2.94-2-6.45-2.75-9.21C335.17,414.85,334.51,413.49,335.67,412.12Zm85.92,225.61c.18.49.75,1.14,1.2,1.19,3.14.33,6.06,3.54,9.5.66.62-.52,1.88-.33,2.85-.37,2.54-.13,3.77-1.37,4-3.86.08-1.08.21-2.19.39-3.27.46-2.72.16-5.59.11-8.4,0-.49-.58-1.28-.42-1.43.93-.87.8-1.43.14-2.52-.45-.72,0-2.11.26-3.14a7.24,7.24,0,0,0-.15-5.28,2.65,2.65,0,0,1-.33-1.58c.81-3.24,1.64-6.47,0-9.71a.41.41,0,0,1,.07-.38c2.06-1.1-.15-2.77.58-4.27s.23-3.39.18-5.11c0-.51-.43-1-.49-1.52-.32-2.88-2.05-5.82-1.07-8.56.88-2.44.71-4.74.67-7.07-.09-4.23.38-8.43-.65-12.71-.58-2.4-1-5.37.7-7.84-.51-3.93,1-8-.75-11.84a3,3,0,0,1-.05-2.5c1.26-1.41.73-3,.78-4.48.09-2.6-.1-5.21.06-7.8.11-1.77-.73-3.64.77-5.34.69-.79-1.63-1.76-.22-3.31.73-.81.14-2.75.31-4.16s.61-2.94.8-4.43c.06-.48-.3-1-.46-1.52s-.47-.95-.33-1.12c1.64-2.05.52-4.42.81-6.62.1-.71-.25-1.59.06-2.14,1.42-2.51,1-5.35,1.61-8s-.5-5.65,1-8.3c-.13-4.77.94-9.38,1.74-14a28.81,28.81,0,0,0,.82-4.42c0-3.53,1.53-6.92.94-10.5-.06-.35.21-.76.34-1.14a53.45,53.45,0,0,1,4.19-8.69c1.88-3.44,4.81-6.21,6-10.1a18.49,18.49,0,0,1,3.29-6.46,14.64,14.64,0,0,0,1.77-3.59,40.83,40.83,0,0,1,2-4.81,12.59,12.59,0,0,0,1.63-3.26c.69-2.54,2.23-4.84,3.31-7.29a26.34,26.34,0,0,0,.9-3.1c1-3.35,1.83-6.76,3-10,1.62-4.38,3.89-8.51,5.19-13,1-3.49,2.61-6.74,3.16-10.44.51-3.42,2-6.7,2.78-10.12.4-1.65,1.52-3.1,1.51-5,0-1.76.64-3.51.78-5.29a52.16,52.16,0,0,1,2.95-12.25c.67-2,1.06-3.91,1.57-5.87s.81-4,1.23-6c.86-4,2.63-7.91,2.13-12.19-.09-.77.41-1.59.43-2.4a67.32,67.32,0,0,0,0-10.14c-.21-1.66-.56-3.06,0-4.74a42.49,42.49,0,0,0,1.21-6c-1.24-.91-.14-1.83,0-2.75.16-1.09.35-2.17.49-3.27s.8-2.88.25-3.66c-1-1.39-.57-2.71-.75-4.07a3.61,3.61,0,0,0-.32-1.59c-.89-1.18-.63-2.33-.2-3.55.1-.28.22-.81.1-.89-2.11-1.36-.35-2.11.4-3.12.48-.66,1.9,0,1.77-1.35a17.21,17.21,0,0,0-.44-4.17c-.57-1.54-2.22-.85-3.44-1-.14,0-.35.06-.43,0-.89-.83-2.14-1.54-2.53-2.57-.32-.87.74-1.65,1.88-1.79.35,0,.61-.6,1-.75a28.63,28.63,0,0,0,5.6-3.91c.26-.39.71-.86.64-1.21a3.65,3.65,0,0,0-.9-1.77c-.33-.36-1-.34-1.43-.66-1-.83-1.46-2-.35-2.9,1.86-1.47,1.12-3.38,1.26-5.15,0-.54-1.29-4.52-1.77-4.88-1-.75-.89-1.75-.79-2.72.05-.42.51-1.15.76-1.14,2.43.06,2.59-1.41,2.73-3.34.38-5.29-.73-10.47-.92-15.71-.06-1.82-.49-2.22-2.32-1.81a16,16,0,0,0-2.61,1c-.32.13-.77.54-.9.45a14.6,14.6,0,0,1-3.58-2.78c-.74-1,1.06-1.52,1.28-2.36.6-2.34,2.85-1.53,4.22-2.35.72-.43,1.91-.07,2.93-.07.1-1.82.09-3.38.28-4.92s-.13-3.78-1-4.15-1.81.55-2.7.9a9.08,9.08,0,0,1-2,.35c-.8.11-1.37-.05-1.36-1.08a5,5,0,0,0-.44-1.55c-.38-1.11.11-2.41,1.09-2.54s2-.28,2.48.16c1.11,1.12,1.68,0,1.85-.45a38.13,38.13,0,0,0,1.12-4.75,14.94,14.94,0,0,0-1.07-8.24c-.84-2.1.46-5.08-2.37-6.44-.2-.1-.21-1.28.08-1.62,2-2.41-.72-4.33-.59-6.52-1.52-.91-1.39-2.42-1.23-3.81.59-5.3-1.19-10.44-.91-15.71a3.93,3.93,0,0,0-.31-1.16c-.7-2.51-1.67-5-1.42-7.67a3.4,3.4,0,0,0-.15-1.66c-.32-.68-1.37-1.67-1.26-1.79.7-.82.67-1.32,0-2.21-.42-.59-.17-1.63-.35-2.44a29,29,0,0,0-1.29-5.11c-1.39-3.33-3-6.56-4.55-9.83a16.07,16.07,0,0,1-1.07-2.59c-1.57-5.74-4.73-10.78-7-16.2a66.93,66.93,0,0,0-4.3-7.76c-.57-1-1.45-1.7-2-2.65s-.59-2.24-1.31-2.89c-1.6-1.46-2.24-3.44-3.33-5.16s-2.38-3.34-3.33-5.14a33.49,33.49,0,0,0-3.63-5.47c-1.23-1.5-3.23-2.9-2.85-5.28.65-3.95-2.65-6.37-6.19-7.4-.54-.16-1.18-.55-1.62-.4-1.76.62-3.48,1.37-5.19,2.14-1.3.58-2.53,1.33-2.63,3-.08,1.44,0,2.89,0,4.34s.59,3.5-.13,4.21c-1.3,1.27,1.17,2.37-.47,3.57-1.42,1,.84,2.43.59,3.8a28.59,28.59,0,0,0-.82,4.42c-.11,5.06-.2,10.13,0,15.19s-.72,9.9.71,14.86c.66,2.27.12,4.89.12,7.35a75.1,75.1,0,0,1-.07,7.8c-.23,2.25,1,4.27.23,6.72s-.3,5.17-.13,7.76-2.13,5-.05,7.54a1,1,0,0,1,0,.85,11.29,11.29,0,0,0,0,9.28c.24.63.34,1.76,0,2.1-1.44,1.36-.71,3-.78,4.48-.12,2.74,0,5.5-.07,8.24,0,1-1.05,2.5-.65,3,1.18,1.5.41,3.05.68,4.53s-.59,2.86.72,4.06a1.15,1.15,0,0,1-.05,1.12c-1.25,1.06-.57,2.44-.63,3.65-.11,2.6-.07,5.21,0,7.81,0,1.83-1.43,3.38-.88,5.28-1.72,1.79.53,3.57,0,5.36a31.1,31.1,0,0,0-.86,3.55c-.46,2.75.86,5.68-.83,8.35-.14.22.59.88.72,1.38.37,1.45,1.31,3.19.84,4.33-1.74,4.21-.77,8.85-2.44,13a2.25,2.25,0,0,0,.25,2c.8.76.5,1.59.57,2.4.16,1.83-.47,3.54-.76,5.3-.41,2.54,0,5.2-.14,7.8s-.92,5.28-.76,7.88c.38,6-.67,11.92-1.1,17.86-.16,2.31,0,4.94-.88,7-1,2.32-.5,4.46-.66,6.66a37.69,37.69,0,0,0,.08,7.36c.09.73.69,1.2-.1,1.92s1.76,1.46.13,2.36c.09,2.81-.79,5.51-1,8.26-.54,8.26.26,16.52-.74,24.84-1.07,8.9.23,18-.93,27-1,7.91.69,16-.89,23.95-.71,3.55.17,7.27-.83,10.94-.66,2.43,0,5.19-.16,7.78s-.56,5-.83,7.46c-.2,1.92.39,3.88-.8,5.76a3.19,3.19,0,0,0,0,2.93c1.25,1.59.61,3.28.77,4.91.65,6.57-.79,13.06-.91,19.6-.08,4.95.86,10-.78,14.85a2.84,2.84,0,0,0,0,2.13c1.46,2.25.55,4.7.82,7s.63,5,.85,7.45c.37,4.26-1.49,8.37-.86,12.66.24,1.67,1.51,3.07.44,5.12-.61,1.16.33,3.07.41,4.65.1,1.88,0,3.76,0,5.64a30,30,0,0,1-.06,5.2c-.3,1.73-.62,3.28.85,4.62,0,0-.09.2-.15.29-1.65,2.48.4,5.61-1.45,8.1a2.14,2.14,0,0,0,0,2.06c1.27,1.08.7,2.41.76,3.62.26,4.68-1.48,9.25-.85,14,0,.14.07.34,0,.43-1.54,1.88-.29,4.21-.94,6.13-.75,2.21-.55,4.41-.85,6.6-.38,2.77.68,5.27,1,7.89.39,3.32-1,6.39-.93,9.63,0,4.34,0,8.68,0,13,0,.87.34,2-.06,2.57-1.38,2.13-.19,4.55-.91,6.59-.78,2.22-.59,4.4-.8,6.61s1.55,4.49-.82,6.32a.43.43,0,0,0,0,.41c1.4,1.48.32,3.58,1.23,5.13a3.65,3.65,0,0,1,.11,3.55,6.6,6.6,0,0,0-.47,2c-.22,2.18.76,4.66-1.67,6.28-.21.14-.11.82-.07,1.25C418.56,631.4,420.4,634.46,421.59,637.73ZM488.12,305l.31.56-.31.31a2.34,2.34,0,0,1-.27-.58C487.83,305.2,488,305.08,488.12,305Zm-50.35,91.15c-.1-.09-.29-.21-.27-.28a2.4,2.4,0,0,1,.27-.59l.31.31Zm27,12.45c-.7-.38-1.35-.61-1.33-.74.11-.73-.61-1.79.61-2.12.3-.09,1,.26,1,.41A16.88,16.88,0,0,1,464.76,408.58ZM448.34,73.37c.07,0,.18.17.28.27l-.56.31-.31-.31A2.4,2.4,0,0,1,448.34,73.37Zm-2.51,2.77c.8,1-.73,3.93-2.26,4-.14,0-.63-.08-.86-.34-.41-.47,1-4,1.59-4S445.58,75.82,445.83,76.14Zm-1.55,100.8-.56.31-.31-.31a3.47,3.47,0,0,1,.59-.27C444.07,176.65,444.18,176.85,444.28,176.94ZM442,56.69a1.47,1.47,0,0,0,1.17-.22c.87-1,1-.35,1.33.61-.82,1.3-1.65,2.65-2.53,4-.07.11-.71,0-.77-.08-.37-.76-.64-1.58-.94-2.37C441.14,58.25,440.34,56.37,442,56.69Zm-2.54,362.07a9,9,0,0,0,.47-1.53c.32-5.23.59-10.46.9-15.69a8.67,8.67,0,0,1,.65-3.2c1.59-3.66,1.31-5.21.28-10.49a6.1,6.1,0,0,1,.87-3.92,7.2,7.2,0,0,0,.79-4c0-1.74-.4-3.61.12-5.17s-.28-2.74-.12-4.09c.29-2.34.7-4.67.84-7s-.56-5.12.18-7.32a15.47,15.47,0,0,0,.53-7.9,21.93,21.93,0,0,1-.64-5.32c.11-1.77.66-3.51.8-5.28s-.48-3.95.14-5.6c1.22-3.23.73-6.45.71-9.66,0-6,1.55-11.86.92-17.86,1.17-2.53.82-5.23.87-7.89a1.91,1.91,0,0,1,.27-1.17c1.88-2,1.07-4.5,1.53-6.77,1.09-5.41.41-11,2.34-16.36.88-2.42.83-5.19,1-7.82a42.4,42.4,0,0,0,0-6.07c-.6-9.16,1.26-18.25.94-27.41-.05-1.17,1.12-2.68.7-3.47-.92-1.71-.28-3,0-4.58a12.66,12.66,0,0,0-.42-6.23,11.11,11.11,0,0,1,.19-7.51,4.88,4.88,0,0,0,.35-2.43c-.58-3.37-1-6.8-1.85-10.09a39.86,39.86,0,0,1-1.62-9.3c0-1.21.58-2.61-.71-3.62-.15-.12-.08-.53-.12-.8-.23-1.36,1.9-2.4.6-3.86s-.4-3-.57-4.53a20.89,20.89,0,0,1,0-4.33c.09-.92.67-1.77.81-2.69a10.08,10.08,0,0,0-.93-6.1,8,8,0,0,1-.77-4c0-6.37,0-12.73,0-19.09,0-2.06.63-4.27-.84-6.15,1.45-1.07-.8-2.69.57-3.85.23-.19.16-1.08-.09-1.41a1.31,1.31,0,0,1-.12-1.84c.36-.52.71-1.58.45-1.9-1.44-1.81-.57-3.85-.81-5.76-.13-1.09.21-2.15-.69-3.23-.4-.48.34-2,.71-3,.52-1.38-2.2-2.71,0-4.06,0-1.59,0-3.18,0-4.77,0-.71-.23-1.77.13-2.07,1.72-1.4-.31-3.8,1.49-5.07-1.33-1.59.06-4-.9-5.12-1.61-1.91.32-2.74.57-4,.08-.41,1.08-.86,1.7-.92a41.85,41.85,0,0,1,4.34,0,13.84,13.84,0,0,1,3.94,2.52c2.05,3.12,4.23,6.11,6.57,9a11.31,11.31,0,0,1,2,9.1c.49,1.56-.7,3.42.86,4.84-1.28,1.44-.63,3.19-.77,4.81a5,5,0,0,0,.85,3.55c1,1.28,1.45,2.63.12,4,1,1.82.76,4.11,1.73,5.78,1.63,2.83,2.4,6.4,5.87,8a2.35,2.35,0,0,1,.93,1.73c.13,1.72-.07,3.47.08,5.2.13,1.48.55,2.94.83,4.41a9.46,9.46,0,0,0,.35,2,31.94,31.94,0,0,1,3.09,14.75,12.23,12.23,0,0,0,1.29,5.13,24.24,24.24,0,0,1,.51,2.83c.18.72-1.61,1.1-.27,2,.19.13-.55,1.35-.6,2.08-.11,2.09-.37,4.33,1.1,6s1.41,3.24.64,5.13c-.57,1.43-1.07,2.66-.21,4.55,1.07,2.36-.12,5.18-.93,7.71-.08.24-.55.4-.57.62-.22,2-1.47,4.08.6,6,1.2,1.09.75,2.69.16,3.92a9.9,9.9,0,0,0-.84,4.44c0,.91.07,1.71.92,2.23a2.11,2.11,0,0,1,.79,2.67c-1.54,3.87-.7,7.88-.75,11.81,0,3.2-.51,6.43.69,9.66a4.25,4.25,0,0,1-1.25,5.07c-.4.3-.35,1.3-.36,2,0,2.6-.12,5.21,0,7.8.08,1.48.06,3.54,1,4.29,2,1.66.72,2.57-.1,3.91-1.42,2.36-1.56,2.76.69,4.55,1.54,1.22.46,2.23.08,2.69-2.51,3-2.9,6.62-3.54,10.31a53,53,0,0,0-.73,7.91c0,.41.07,1-.16,1.22-2.11,2.39-1.37,5.29-1.62,8-.17,1.91.63,3.83-.7,5.8-.92,1.37.22,3.4-.83,5.29-.83,1.5-.18,3.73-.92,5.67a12.53,12.53,0,0,1-2.32,4.26c-.63.69-1,1.62-1.57,2.37-.94,1.25-.67,2.2.37,3.31,2.19,2.33,2.46,4.57.49,7-1.09,1.35.37,3.3-1.42,4.22.46,3-2.14,5.39-1.74,8.39-1.49,1.56-.68,3.5-.86,5.28-.13,1.4.64,3.21-1.68,3.57A3.07,3.07,0,0,0,468,356c.18.27.53-.18.84-.43l.38-.1c.11.07.19.3.21.79s-.48,1.25-.6,1.9a11.87,11.87,0,0,0-.22,2.52,9.58,9.58,0,0,1-1.29,6,6.26,6.26,0,0,0-.46,2.4c-.21,1.35.55,2.88-.79,4-.15.13-.1.55-.07.82.51,4.2.41,4.89-.63,8.57a3.78,3.78,0,0,0,.2,2.32,3.51,3.51,0,0,1-.27,3.9c-.68.9-.68,2.29-1.06,3.44a4.28,4.28,0,0,1-.87,1.79,8.56,8.56,0,0,0-2.55,7.19,8.58,8.58,0,0,1-2.59,6.78,76.66,76.66,0,0,0-5.85,7.54c-.86,1.19-1.27,2.74-2.23,3.81a20.05,20.05,0,0,0-2.4,3.8,11.67,11.67,0,0,1-3.92,4.4c-2,1.29-2.74,1.2-3.88-1C438.63,424,438.82,421.38,439.45,418.76Zm-.53-35.32-.34,7.3a3.11,3.11,0,0,1-.58.15c-.2,0-.44-.26-.66-.41C439.33,388.73,437.48,386.27,438.92,383.44Zm-4.18-77.56a6.19,6.19,0,0,1,1,.78l-.6.92L434,306.12C434.27,306,434.58,305.8,434.74,305.88Zm-2.33,293.55a2.4,2.4,0,0,1,.59.27l-.31.31-.56-.31C432.22,599.6,432.34,599.41,432.41,599.43ZM430,529.82a3.38,3.38,0,0,1,.27.58c0,.07-.18.19-.27.29a2.4,2.4,0,0,1-.27-.59C429.67,530,429.86,529.91,430,529.82Zm.44,27c.31,0,.77.65.82,1,.17,1.32,0,1.49-1.65,1.52-.12-.09-.73-.28-.87-.65C428.44,558,429.57,556.72,430.4,556.78Zm-1.16,21.81c.07,0,.19.18.28.27l-.56.31-.3-.31A3.06,3.06,0,0,1,429.24,578.59ZM427.5,589c.07,0,.19.17.29.27l-.56.31-.31-.31A2.76,2.76,0,0,1,427.5,589Zm-2.63-19.14.31.31a2.34,2.34,0,0,1-.58.27c-.07,0-.19-.17-.29-.27Zm-1,20.71a2.4,2.4,0,0,1,.27.59c0,.07-.17.18-.27.28l-.31-.56Zm-.12,7.94.55.31c-.09.1-.21.29-.28.27a2.34,2.34,0,0,1-.58-.27ZM213.62,58.19c1.21,2.5.3,5.06.62,7.56,0,.14-.06.33,0,.43,1.24,1.77,1,3.8.81,5.72s.63,3.82.87,5.72c.21,1.57,0,3.18.06,4.77s-.3,3.45.46,4.55c1.28,1.85-.7,2.85-.48,4.28.06.43-.18,1,0,1.28,1.46,1.61.6,3.54.85,5.31.17,1.21-.47,2.52.75,3.64.29.27-.33,1.48-.45,2.27-.14,1-.65,2.38-.22,2.83,1.27,1.3.7,2.72.75,4.07a14.53,14.53,0,0,1-.71,6.2c-.42,1,.52,2.59.72,3.93.24,1.52,0,3.23.59,4.53.73,1.54-1.57,3.09.3,4.37a18.08,18.08,0,0,0-.83,3.55c-.11,3.47,0,6.94,0,10.41s-.16,7,0,10.42-1,6.83.78,10.08c.13.23-.35.72-.37,1.1-.15,2.6-2.46,4.95-.55,7.84a4.21,4.21,0,0,1,0,3.77c-.7,1.11-.27,2.45-.84,3.11-1.13,1.32.1,2.21.13,3.27.23,9.28.57,18.56.82,27.85.09,3.61,0,7.23,0,10.85a9.35,9.35,0,0,0,.61,3.64c.86,2.1-.26,4.73,1.1,6.92-2.2,2.79.38,6.45-1.69,9.3-.21.28.06,1.13.37,1.52.53.67.38,1.08.08,1.84-.38.95-.7,2.46-.21,3.11.83,1.13.44,2.19.57,3.27.31,2.48-.7,5.1.83,7.48.22.34-.11,1.06-.25,1.58s-.63,1.32-.49,1.44c1.35,1.17.75,2.7.74,4s.46,1.66,1.73,1.67c.84,0,1.4,2,.76,2.16-2.32.63-1.61,2.35-1.54,3.7.36,7-.92,14,.78,20.92a14.61,14.61,0,0,1,0,4.76c-.15,1.63-.83,3.24-.78,4.85.17,5.23-.39,10.45.68,15.73.95,4.66-.05,9.54.84,14.39,1,5.4.76,11,1,16.54a26.33,26.33,0,0,0,.73,6.63c.43,1.41,1.79,3.2.19,4.92-.22.24.13,1,.27,1.57s.63,1.16.46,1.46c-1.69,3-.32,6.18-.77,9.23,1.41,1.74.65,3.8.88,5.72s.68,4.09.83,6.15c.35,4.94-.17,9.87.74,14.86.86,4.67-.18,9.59.93,14.39.51,2.19.09,4.6.09,7.36.29,3.05,0,6.52.69,10.08.81,3.94.09,8.13,1,12.21.49,2.36.07,4.9.09,7.36,0,3.8-.39,7.65.87,11.36a7.85,7.85,0,0,1,.8,2.24c0,.75-.81,1.53-.75,2.24.18,2.06-.78,4.25.76,6.2a2.29,2.29,0,0,1,0,2.1c-1.47,2.3,0,4.56.34,6.61.55,3.1.92,6.24,1.39,9.35.54,3.6.63,7.27.94,10.91a2.61,2.61,0,0,0,.25.76,14.44,14.44,0,0,1,1.51,5.9c0,2.22,1.39,4.27.85,6.59-.13.55-.26,1.35,0,1.7,1.12,1.37,1,3,.78,4.44-.23,1.78,1,3.23.88,4.86-.24,4.84,1.54,9.53.94,14.4-.09.75.43,1.56.52,2.36a9.73,9.73,0,0,1,0,2.35,17.86,17.86,0,0,0-.5,1.94c0,6.08-.18,12.16,0,18.23s-.69,11.92.72,17.89c.84,3.52.65,7.27,1,10.9.06.64.7,1.23.7,1.85s-.61,1.17-.69,1.78a5.56,5.56,0,0,0,.25,2.05c.36,1.29.92,2.53,1.18,3.84s-.25,3.07.44,3.66c1.82,1.58-.62,2.48-.23,3.78.29.93-.32,2.25.15,3a6.72,6.72,0,0,1,.81,3.16c.15,1.2.76,2.37.78,3.55,0,1.54.86,2,2,2.71,2.71,1.69,6.17,1.12,8.7,3.17.1.08.58-.46.89-.48,3.7-.14,4.66-3.24,5.69-5.76a24.67,24.67,0,0,0,1.83-9.66c0-1,0-2,0-3,0-.83-.06-1.89.39-2.41,1-1.08-.86-1.37-.34-2.49a19.68,19.68,0,0,0,1.67-8.42c0-.87-.37-2.09.07-2.54,1.34-1.41.11-3.35.91-4.4,1.27-1.67.42-3.32.74-4.93.09-.42-.07-.91.09-1.27,2-4.54,2.23-9.49,3.39-14.22a31.91,31.91,0,0,0,.85-4.42c.36-3.78.26-7.64,1.05-11.32.36-1.69-.65-3-.17-4.52a31.64,31.64,0,0,1,.91-3.1c.47-1.08-1.19-1.77-.38-2.93.2-.29-.65-1.42-.47-1.59,1.34-1.31-.34-2.82.09-3.6a8.05,8.05,0,0,0,.72-4.06c0-1.59-.13-3.2,0-4.77.34-3,.41-3-.77-4.33-1.34-1.53-1.39-1.89-.14-3.57,2.37-3.19,2.9-6.82,2.58-10.64,0-.39-.5-.8-.86-1.1-1.57-1.31-3.48-.94-5.27-.84s-1.42,2.22-2.49,3.09c-.37.3-.37,1-.7,1.43a15.16,15.16,0,0,0-2.85,7.51,24.23,24.23,0,0,1-1.71,5.36c-.86,2.1-2.57,2.82-4.79,2.56a2.09,2.09,0,0,1-2.11-2.12,26.69,26.69,0,0,0,0-3.47c-.85-4.37-.87-4.36,0-8.84a5.38,5.38,0,0,0-.34-2c-.44-2.13-1.67-4.47-1.15-6.32a21.56,21.56,0,0,0,.63-5.34c.29-7.71-1.48-15.35-.85-23.08a11.1,11.1,0,0,0,0-1.73,9,9,0,0,0-.27-1.63,16.23,16.23,0,0,1,0-8.19c.45-2.28,1.59-4.48,1.17-6.9-.19-1.05-.88-2.1-.8-3.11.35-4.65-1-9.4.78-14a3.08,3.08,0,0,0-.2-1.63c-.18-.79-.83-1.77-.56-2.3,1-2,.46-3.88-.06-5.83a30.24,30.24,0,0,1-.85-4.42c-.14-1.28,0-2.6,0-3.9,0-1.14.37-2.65-.21-3.34-1.16-1.4.5-2.1.35-3.33-.74-5.77.31-11.58-.84-17.45-1.05-5.38-.8-11-1-16.54-.13-3.47,0-6.94,0-10.42,0-.86.35-2.14-.09-2.52-1.77-1.53-.24-3.73-1.47-5.55-.88-1.29,0-3.68-.23-5.52a38.62,38.62,0,0,1-.87-5.73c0-2.34.7-4.79-.75-7-.24-.38.3-1.26.48-1.91.11-.39.43-1,.3-1.13-1.67-1.58-.67-3.55-.8-5.32a25.43,25.43,0,0,1,.06-6.92c.45-2.18-1.77-4.1-.24-6.19-1.45-1.29-.55-3-.69-4.48s.17-3.37-.91-4.84c2.27-1.35-.13-2.69-.09-4.06.12-4.08.38-8.16-.68-12.25-.66-2.51.36-5.31-.9-7.89-.29-.59.35-1.58.36-2.39s-.61-1.58-.35-2c.45-.75,1.2-1.51.74-2.26a8.07,8.07,0,0,1-.85-4,24.07,24.07,0,0,0-.73-3.51c2.07-1.28-.29-2.39-.2-3.67.23-3.13.58-6.48-.27-9.41-.91-3.14.2-6.36-1.24-9.45-.72-1.54-.37-3.74-.06-5.57.34-2.09-1-3.76-1-5.73,0-4.38.39-8.79-.85-13.1a8.78,8.78,0,0,1-.66-2.3c0-.88.91-2.14.58-2.55-1.26-1.57-.07-3.61-.89-4.84-1.2-1.79.26-3.07.12-4.57-.06-.57.23-1.33,0-1.7-1.5-2.06-.1-4.59-1-6.52-1.16-2.41-.38-4.76-.63-7.12-.34-3.06,0-6.09-.73-9.22a54.77,54.77,0,0,1-1-13.06c.21-10.89-1.55-21.72-1-32.63.09-1.77-1.8-3.57,0-5.35.29-3.93.57-7.86.87-11.79.16-2.07-.24-4.11.72-6.22a4.85,4.85,0,0,0-.34-4.52,3.51,3.51,0,0,1-.33-2.42c.22-1,1.56-2.3.72-3-1.47-1.26.63-1.82.15-2.88a11.78,11.78,0,0,1-.89-4c-.28-3.93.19-7.86-.77-11.82-.67-2.74-.37-5.79-.06-8.64.32-3-.91-5.81-1-8.77-.11-4.8-.34-9.62-.92-14.38-.21-1.72-1.31-3.27.07-5,.19-.23.06-.87-.12-1.21a6.15,6.15,0,0,1,0-5.93,2.94,2.94,0,0,0-1-3.82c-.93-.65-1.56-1.74-2.49-2.39A7.11,7.11,0,0,0,221.55,42c-.11,1.84-1.42,1.73-2.71,1.68-.72,0-1.44,0-2.16,0a3.26,3.26,0,0,0-3.2,2.36c-.6,1.59.42,3.58-.83,5.18C214.3,53.38,212.57,56,213.62,58.19Zm27.72,505.46a1,1,0,0,1-.86-.18l-.13-2.9a.83.83,0,0,1,.6-.34c.37,0,.88.2,1,.47a2.42,2.42,0,0,1,0,1.26C241.92,562.57,242.43,563.52,241.34,563.65Zm.68,3.06-.56.31-.31-.31a2.34,2.34,0,0,1,.58-.27C241.8,566.42,241.92,566.61,242,566.71Zm-1.08,15.15a1,1,0,0,1-.37-.12l-.14-1.75a6.42,6.42,0,0,1,.93-.69l1,2C241.76,581.54,241.32,581.92,240.94,581.86Zm.44-8.62a1.75,1.75,0,0,1-.43,0l1.26-2.52h0a4.73,4.73,0,0,1,.62,1.24C243.16,573.16,242.35,573.24,241.38,573.24ZM244,606.8l0-.15c.09-.19.17-.41.27-.41a5.87,5.87,0,0,1,1.24.15c-.2.31-.33.66-.43.66A5.63,5.63,0,0,1,244,606.8Zm1.63,13.59c-.31-.72-.55-1.18-.7-1.51l-.16-2a.77.77,0,0,1,.74-.21c.32,0,.79.65.83,1A11.49,11.49,0,0,1,245.6,620.39Zm3.2-95.2c0,.07-.18.19-.27.29l-.31-.56.31-.31A3.38,3.38,0,0,1,248.8,525.19Zm-1.24-20.44.74,1.74-.89,1.63c-.35-.3-.89-.54-1-.92C246,506.07,246.81,505.4,247.56,504.75Zm-1.25,107.78c0,.12-.52.49-.85.59s-.68-.17-.68-.28c-.05-1.34,0-2.69,0-5C245.51,610,246,611.27,246.31,612.53Zm-.82-91.83-.56.31-.31-.31a3.38,3.38,0,0,1,.58-.27C245.28,520.42,245.39,520.61,245.49,520.7Zm-2-7.35a7.34,7.34,0,0,1,1.76.72l-2.14,1.7c-.38-.54-1-1-1.09-1.63C241.93,513,242.94,513.33,243.54,513.35ZM242,539.17c.07,1.86.07,3.73,0,5.59,0,.24-.54.63-.83.63a1.07,1.07,0,0,1-.83-.62c0-.21,0-.43,0-.64v-4.45c0-.16,0-.33,0-.5a1.06,1.06,0,0,1,.83-.63C241.44,538.55,242,538.94,242,539.17Zm-2.77-18.77c1.44-.09,1.26.7,1.11,1.58L239,520.45A.65.65,0,0,1,239.21,520.4Zm0,6.85a3.65,3.65,0,0,1,1.86.49c.28.24.05,1.06.05,1.62a5.28,5.28,0,0,1,0,1.26c-.09.34-.33.82-.59.88a.58.58,0,0,1-.34,0l-1.3-3.7C239,527.53,239.15,527.24,239.24,527.25ZM218.71,188.31a1.09,1.09,0,0,1,.73-.47c.29,0,.82.38.84.62a31.07,31.07,0,0,1,0,3.86c0,.24-.54.63-.83.63a.88.88,0,0,1-.42-.16Zm1.4,36.72c-.37-.05-.6-1.3-.66-1.45v-2.12a1.6,1.6,0,0,1,.05-.21c.07-.24.66-.39,1-.44.2,0,.6.25.62.43a4.63,4.63,0,0,1,0,1.7C221,223.73,221.93,225.25,220.11,225Zm-.66-10.27v-2a1.08,1.08,0,0,1,1.07-.47c1.35,0,.34,2.16.69,3.32-.43,1.12.91,3.31-1.1,3.28a.7.7,0,0,1-.66-.36v-2.22a6.78,6.78,0,0,0,.07-.71A5,5,0,0,0,219.45,214.76Zm1.7,41.56a.71.71,0,0,1-.35-.14l.31-12.44a10.93,10.93,0,0,1,.08,1.17c.27,1.18.68,2.33.83,3.52a28,28,0,0,1,0,3.43c0,1.29,0,2.58,0,3.86C222,256,221.45,256.33,221.15,256.32Zm.71,8.14a3.13,3.13,0,0,0,.4-.28l1,2a7.88,7.88,0,0,0-.72.38Zm1.41,12.3c-.21,1-.45,2.11-.69,3.33-.06-.1-.11-.2-.16-.3Zm-1.22,10.5a2.89,2.89,0,0,0,0-.51v-1.09l0-.2a.77.77,0,0,1,.64-.41c.37.05.88.2,1,.47a2.38,2.38,0,0,1,0,1.25c-.09.62.42,1.57-.67,1.7-.81.1-1-.21-1.06-.64Zm.57,16.13a2.5,2.5,0,0,1,.49,0c1.31.08.38,1.91.69,2.92-.63.85,1.06,2.83-.78,2.91Zm.68,9.89.9,1.1c-.31.25-.55.51-.77.7Zm.91,13.06-.06-.84a2.07,2.07,0,0,1,.17.45A.73.73,0,0,1,224.21,326.34Zm-.19-2.76-.13-1.83c.05.08.1.17.16.25A1.22,1.22,0,0,1,224,323.58Zm-.27-3.91-.16-2.3a11.12,11.12,0,0,1,.89,1.13A2.73,2.73,0,0,0,223.75,319.67Zm-.89-26.06c-1.05.3-.75-.83-.8-1.45-.12-1.44,1-1,1.72-1,.27,0,.55.24.94.43C224,292.39,223.55,293.42,222.86,293.61Zm2.1,34.08c.25.35.5.7.74,1l-.48,1.31a4.18,4.18,0,0,1-.53-1.19A3.26,3.26,0,0,1,225,327.69Zm.81,25.87-.78-3.3a.64.64,0,0,1,.34-.11c.36.06.87.2,1,.47a2.23,2.23,0,0,1,0,1.26C226.3,352.48,226.77,353.4,225.77,353.56Zm1.06-223.06c-.1-.1-.29-.21-.28-.29a2.81,2.81,0,0,1,.28-.58l.3.31Zm1.81,277.06c.23-.12.54-.27.86-.45a15.92,15.92,0,0,1,.31,2.44c0,.08-.16.2-.36.3Zm4.88,67.62c.36.08.6.7,1.09,1.33l-1.47,1.22a5.79,5.79,0,0,1-.65-1.29C232.32,475.67,232.54,475,233.52,475.18Zm-.2,7.76a14.16,14.16,0,0,0-.52-1.64c.56,0,1.32-.3,1.61,0a3.3,3.3,0,0,1,.64,1.72,2.82,2.82,0,0,1,0,1.26.8.8,0,0,1-.64.41c-.37,0-.88-.2-1-.47S233.4,483.34,233.32,482.94Zm5.22,22.59c0,.28,0,.56,0,.85a5.87,5.87,0,0,1,0,1.26.77.77,0,0,1-.61.44c-.38,0-1-.18-1-.41a4.77,4.77,0,0,1,0-1.69c0-.2-.33-.38-.58-.55l-.08-.53a2.67,2.67,0,0,1,.48-.2C237.21,504.52,238.43,504.1,238.54,505.53Zm-1.31-6a1.18,1.18,0,0,1,.41,1c-.29,1.12-.72,2.2-1.16,3.46-.23-.57-.46-1.08-.67-1.57l-.39-2.74a.44.44,0,0,1,.16-.17A2.34,2.34,0,0,1,237.23,499.48Zm-1.29-11.34v2.55c0,.1-.2,1.61-.63,1.69-2.06.38-.54-1.68-1.34-2.36a2.56,2.56,0,0,1-.61-1.43c-.17-.79,0-1.42,1-1.3C235,487.35,235.93,487,235.94,488.14Zm-1.5-122.35a8.71,8.71,0,0,1,1,1c-.92.63-1.63,1.13-2.38,1.56a3.06,3.06,0,0,1-.6-.78A16.85,16.85,0,0,1,234.44,365.79Zm-2,90.48c.07.1,0,.28,0,.42a3.57,3.57,0,0,1,0,1.27,1,1,0,0,1-.29.36l-.88-2.78c.12-.12.24-.25.35-.38C231.89,455.53,232.2,455.89,232.46,456.27Zm-.92-18c0,1,.69,2.82-.62,2.9a2.07,2.07,0,0,1-.72-.07l-.25-4.73a.88.88,0,0,1,.59-.24C232.36,435.93,231.56,437.5,231.54,438.25Zm-1.44-15.4c.25.41.65.76.59,1a11.82,11.82,0,0,1-.84,2.18c-.08.17-.36.24-.55.35a27.24,27.24,0,0,1-.26-2.84C229,423.34,229.64,423.14,230.1,422.85Zm-1-22.28a2.52,2.52,0,0,1,.75,1c.22.94,0,1.63-1.28,1.53-.73-.06-1.19-.13-1.29-.8v-.84C227.32,400.76,227.63,400.3,229.08,400.57ZM227.26,94a.78.78,0,0,0,0-.21l.7,2.8-.14.06a8.86,8.86,0,0,1-.58-1.35A5.6,5.6,0,0,1,227.26,94Zm-5.21,20.66a4.22,4.22,0,0,0,0-.49l.4-1.84a1.49,1.49,0,0,1,.85-.06c.8.13,1.21-.09,1.37-1.06.2-1.25,1.38-.45,2.1-.67a11.93,11.93,0,0,1,.44,1.52c.14,1-.47,1.19-1.29,1.09s-1.44.09-1.29,1.08c.21,1.46-.58,1.66-1.74,1.53-.63-.08-.83-.33-.88-.65Zm-.09,93c.33,1.79-.44,1.84-1.41,1.85s-1-.36-1.1-1v-.94c.14-.73.73-.85,1.49-.67A2.75,2.75,0,0,1,222,207.67Zm-1.57-10.41a3.2,3.2,0,0,1-1.08-.53l-.19-2.74a4.55,4.55,0,0,1,1.17-.1c1.42.05.69,1.21,1,2.19C221.05,196.4,220.6,197.31,220.39,197.26Zm.84-50.08c-.06.43,0,.95-.22,1.22,0,0,0,0-.08.06l.26-1.78C221.2,146.85,221.21,147,221.23,147.18Zm0,2.85-.31.31-.2-.11.06-.42C220.89,149.87,221,150,221.18,150Zm0-31.77c0,2,0,4.07-.05,6.1,0,.32-.66.62-1,.93-.11-.14-.27-.28-.4-.42Zm-1.74,38.79c.06-.3.28-.52.85-.46.33,0,.8.65.83,1a10.74,10.74,0,0,1-.7,2.68,10.65,10.65,0,0,1-1-2.25c0-.1,0-.22,0-.34Zm.18,20.41c1.41.11.39,1.65.69,2.49-.4.86,1,2.7-1.06,2.55a.89.89,0,0,1-.68-.31v-1.72a4.3,4.3,0,0,0,.07-.46,2.4,2.4,0,0,0-.07-.62v-1.65A1.2,1.2,0,0,1,219.63,177.46Zm310.59,5.84c.37,1.15.44,2.61,1.21,3.35s2.22.8,3.38,1.14c1.52.46,1.32-1,1.84-1.66a2.28,2.28,0,0,1,3-.69c1.45.58,2.67.14,2.69-1.05,0-2.39,1.3-4.54,1-7-.18-1.55-.46-3.21.64-4.93.66-1,.18-3.09-.3-4.5a8.37,8.37,0,0,1-.09-4.44,16,16,0,0,0,.21-6.63c-.38-1.44-.88-2.58,0-3.87a34.63,34.63,0,0,1,2.49-3.29,2.18,2.18,0,0,1,1.26.49c-.23,2.56.7,5,.86,7.46.52,7.68-.6,15.41.86,23.08a15.93,15.93,0,0,1-.58,6.18c-.49,2.26-1.1,5,.58,7.46.42.61.06,2-.28,2.84a7.59,7.59,0,0,0,.07,5.62c.71,2,2.11,4.23.89,6.34a5.32,5.32,0,0,0-.57,3.24c.17,3.5-.26,7,.66,10.54.53,2.07,1.11,4.82-.69,7q.43,3.51.86,7c0,.14.07.36,0,.42-1.41,1.22-.38,2.43,0,3.63a19,19,0,0,1,.93,5.71c0,1.62-.47,3.23.65,5,.79,1.22-.09,3.25,1,4.78a5.9,5.9,0,0,1,.87,2.65c.15,1.14,0,2.32,0,3.47.27,4.8.57,9.6.86,14.4,0,.14-.06.33,0,.42,1.53,2,.59,4.4.86,6.59s.64,4.39.85,6.59c.39,4.07-.24,8.11.72,12.26,1,4.34.73,9,1,13.49a7,7,0,0,0,.52,2.82c.79,1.68.47,4,1.45,5.45,1.18,1.79.44,3.72,1.3,5.57a7.47,7.47,0,0,1-.68,6.5c1.18,2.07,1.56,4.7.72,6.51-1.84,3.91.06,7.4.42,11,.21,2.21,1.72,4.38,1.41,6.72-.33,2.61,1,4.93.92,7.46a8.35,8.35,0,0,0,.9,4.83c1,1.69.73,3.5.86,5.3.21,3.06-.5,6.15.76,9.22a9.4,9.4,0,0,1,.45,1.39q-.18-5.74-.36-11.68c0-.42,0-.83,0-1.25,0,.41,0,.83,0,1.24q.2,6,.39,11.83a17.42,17.42,0,0,1,.39,3.07l-.1,5.59c-.1-2.86-.19-5.73-.29-8.66l0-.14c.1,3.31.2,6.56.3,9.77l-.3,15.88-.75,14.44a2.18,2.18,0,0,1-1.15.77,71.44,71.44,0,0,1-7.45.9c-2.89.19-4.08,1.42-2.9,4a8.32,8.32,0,0,1,.56,3.67,21.08,21.08,0,0,0,.34,4.36,6.36,6.36,0,0,1,.54,1.93,3,3,0,0,0,2.67,3.29c2,.13,2.55,2.15,4.3,2.35a1.62,1.62,0,0,1,.83,1.31c-.54,2.89,1,5.51.93,8.33-.05,7.23-.15,14.47,0,21.7s-.64,14.53.74,21.79c.66,3.41.15,7,.81,10.5.71,3.82.58,7.84.87,11.77.81,10.7-.62,21.47,1,32.19.44,3-.1,6.08.11,9.1.2,2.77-.34,5.5.65,8.38.91,2.66.31,5.77.9,8.72a34.18,34.18,0,0,1,.07,9.95c-.34,3.46,1.13,6.66,1,10.06a48.7,48.7,0,0,0,0,6.94c.26,2.72.91,5.41,1.31,8.12s.47,5.26,1.44,7.73l.37,3.37,1.41,3.39c0,.19,0,.19.08.2,3.78.3,7.6-.55,11.39.76,1.6.56,3.76.61,5-1.38,0-.06.38.08.59.13l1.48.36c.1-.68.53-1.74.25-2a3.35,3.35,0,0,1-.7-4c1.38-3.07.77-6.19.65-9.23-.09-2.2-.21-4.71-2.13-6.46-.72-.65-.19-1.13.16-1.8a7.17,7.17,0,0,0,.48-6.57c-2.57-6.5-2.23-7-1.08-14.93a9.35,9.35,0,0,0-.36-4.58,17.05,17.05,0,0,1-1.34-6.85c.17-2.73,0-5.49,0-8.24a7,7,0,0,0-.76-3.6c-.74-1.37-.16-3.62-1.08-4.7-1.68-2,.23-3.37.13-5s.49-3.69-.14-5.15c-.91-2.1-.73-4.13-.7-6.2,0-1.21-.67-2.61.58-3.65-.59-4.07-1.68-8.1-.7-12.29.14-.59-.7-1.4-1.06-2.12a1.47,1.47,0,0,1-.25-.91c1.52-4.91.43-9.82-.65-14.52a18.39,18.39,0,0,1-.39-7.51c.44-2.24.88-4,0-6.32a5.61,5.61,0,0,1,.38-4.93,3.55,3.55,0,0,0,.28-2.45,33.23,33.23,0,0,0-1.56-4c1.42-1.46.67-3.27.7-4.9.11-5.21,0-10.42.06-15.62s-1.48-10.13-.91-15.27a2.27,2.27,0,0,0-.25-1.6c-.73-.79-.22-1.34-.13-2.15a29.84,29.84,0,0,0-.06-8.39,27.58,27.58,0,0,1-.51-5.15c0-5.53-.47-11-.76-16.57,0-.14.06-.34,0-.42-2.33-2.61.59-6.22-1.7-8.83,1.75-3.24.24-6.45.13-9.71-.14-4.11-.84-8.14-1.05-12.22,0-.87-.85-2.07-.52-2.51.84-1.1.56-2.22.5-3.28-.18-3.36-.5-6.71-.84-10.06-.16-1.63.44-3.29-.76-4.92-.54-.72-.23-2.26,0-3.35,1-4.16,1-4.15-.11-8.88-.24-1.06.19-2.12-.75-3.19s.68-2.22.77-3.46A24.84,24.84,0,0,0,576.39,335c-.24-.64.3-1.54.33-2.33a43,43,0,0,0,0-7.53,8.47,8.47,0,0,0-.54-2.77c-.59-1.05,0-1.88,0-2.79,0-2.48.45-4.94-.63-7.51-.94-2.21-.82-4.9-1-7.4,0-.87,1-2.23.72-2.59-1.48-1.71-.45-3.61-.78-5.36-.08-.4-.11-1.07-.32-1.14-3-1-1.53-3.63-1.14-4.93a25.33,25.33,0,0,0,.59-4.06c.28-2-.42-3.83-.81-5.73a19.4,19.4,0,0,1,0-3.89,28.66,28.66,0,0,0,0-3.47c-.16-1.2-1.18-2.85-.71-3.45,1.06-1.38-.22-2.23-.23-3.29,0-2.07.7-4.2-.48-6.28s.38-4,.57-6c.06-.57.25-1.33,0-1.71-1.34-1.79-.75-3.82-.8-5.74-.09-3.33,0-6.66,0-10a5.39,5.39,0,0,0-.66-2.78c-.85-1.55-2.14-3.41-.24-5.3a1.65,1.65,0,0,0,0-1.64c-1.4-1.18-.65-2.69-.8-4-.33-2.92.73-6-.88-8.76.71-2.94-2.17-5.86,0-8.86.18-.25-.34-1-.47-1.49a7.47,7.47,0,0,0-.39-2c-.7-1.24,1.9-1.56.66-3.06-.61-.73-.4-2.11-.63-3.18a18,18,0,0,1-.82-3.12c-.11-3.18-.08-6.36,0-9.54,0-.63.69-1.28.62-1.86-.05-.37-1.27-.54-1.37-1-.38-1.53-1.06-3.28-.64-4.65,1.45-4.69-.18-9.16-.45-13.72-1.56-1.41-.48-3.26-.79-4.88a27.27,27.27,0,0,1-.94-4.84c-.06-3.79-.5-7.58-.82-11.36,0-.37-.38-.71-.51-1.08-.78-2.37.17-5-1.18-7.3,1.23-.79.9-2.05.8-3.12-.13-1.49-.67-2.94-.79-4.42-.15-1.73,0-3.47-.07-5.21,0-.24-.52-.5-.84-.67s-1.53.32-.55-.74a1.29,1.29,0,0,0,.25-1.83c-.38-.64-.71-1.93-.39-2.25,1-1,.65-2.14.68-3.23.06-2,0-4.05,0-6.07-2-1.79.92-3.55,0-5.37-.23-.47.22-1.4-.07-1.68-2.14-2,.47-5.13-1.65-7.11,2.41-3.69-.41-7.35-.06-11a2.06,2.06,0,0,0-.17-1.22c-.45-.71-1.33-1.26-1.47-2s.71-1.47.74-2.23a17.48,17.48,0,0,0-.32-4.63c-.67-2.67-1.62-5.27-1.38-8.1a6.79,6.79,0,0,0,0-2.16A6.16,6.16,0,0,0,554.3,57c-.34-.39-1.31-.26-2-.32-.43,0-1,.16-1.28,0-3.7-2.32-7.31.15-10.95.25-1.29,0-2.55,1.12-3.94,1.78a20.4,20.4,0,0,0,2.14,2.1,5.51,5.51,0,0,1,2.35,6c-.14.78-.45,1.54-.67,2.32-.36,1.3-1.11,2.65-1,3.89.31,2.49-.76,4.68-1,7-.14,1.16-1.06,2.27-.76,3.55.35,1.51-.53,2.72-1,4a10.08,10.08,0,0,0,.09,8c.52,1.09,1.12,2.15,1.66,3.22.69,1.39-.83,2.27-.8,3.52,0,1.73.11,3.48,0,5.21s.27,3.27-.46,5c-.62,1.47-.33,3.34-.37,5,0,2-.13,4.06,0,6.08s.73,4.09.8,6.15c.13,4.19,0,8.39,0,12.58,0,2.64.42,5.35-1.57,7.61-.3.34,0,1.12-.18,1.65a17.83,17.83,0,0,0-.74,1.85c-.07.47.86.61.25,1.58-1.25,1.95-2.87,10.07-3,12.21a17.14,17.14,0,0,1-.58,3.63,28.51,28.51,0,0,0-1.05,5.64c-.06,1.07,1.45,2,.46,3.41C530,180.91,531.86,182.39,530.22,183.3Zm60.26,420.55.08.43-.13.07-.31-.31Zm-3.55,23.9c-.07,0-.19-.18-.28-.27l.56-.31.3.31A3.06,3.06,0,0,1,586.93,627.75Zm.54-62.71c0,.12,0,.25,0,.38v19.7c-.31-.62-1.33-1.2-.06-1.85-1.46-2.87-.14-6.12-1.12-9-1.06-3.1-.22-6.2-.52-9.29,0-.12.44-.44.64-.41C586.82,564.63,587.45,564.83,587.47,565Zm-.82-14.36v1.78a3.28,3.28,0,0,0,0,1.21v.85a2.76,2.76,0,0,0,0,1.31v1.69a1.79,1.79,0,0,1-1.07.94c-1.53-1.24-.65-2.94-.56-4.31s-1.33-3.39,1-4.37A1.9,1.9,0,0,1,586.65,550.68Zm-1.18-20.74.31.31a2.34,2.34,0,0,1-.58.27c-.08,0-.19-.17-.29-.27Zm-.06,5.14.3,8a1.13,1.13,0,0,1-.76.59c-.29,0-.85-.36-.87-.59-.08-1.28,0-2.57-.05-3.86a10.91,10.91,0,0,0-.44-3.25c-.29-.74-.34-1,.45-.92C584.46,535.07,585,534.87,585.41,535.08Zm-2.67-58.22.31.31-.31.56c-.1-.09-.29-.21-.27-.28A2.4,2.4,0,0,1,582.74,476.86Zm.22,10.42v.65l-.28,2h-.16v-2.61Zm.21,29.37a8.63,8.63,0,0,0,.66-.79c.41.16.74.19.89.35l-1.08,6.5c-.23-.09-.42-.21-.42-.27C583.32,520.51,581.15,518.58,583.17,516.65ZM581.87,443l.15.28-.23,1.27a2.86,2.86,0,0,1-.32-.9C581.45,443.46,581.73,443.23,581.87,443Zm-.88-15.5-1,3.1c-.53-.76-.49-2.68.16-3.19A1.08,1.08,0,0,1,581,427.51Zm-1.28-11.37c.27,0,.52.29.86.61v.88l-.88,1.07c-.28-.36-.75-.7-.81-1.1C578.79,417,578.56,416,579.71,416.14Zm-1.16-17.25a4.82,4.82,0,0,1,.24,1.56c-.06.39-.49.73-.94,1.34-.39-.67-.8-1.13-.71-1.26A14.54,14.54,0,0,1,578.55,398.89Zm-2.28-20.51c0-.45,1.4-.78.23-1.51.15-.24.25-.57.46-.67a.9.9,0,0,1,.68.12l.25,4.59a1.22,1.22,0,0,1-.58.46.56.56,0,0,1-.42,0C575.64,380.61,576.4,379.38,576.27,378.38Zm-2.1-22.79c.25,0,.48.3.72.69l.22,2.16a8,8,0,0,1-1.23.35c-.94.15-1.13-.37-1.15-1.22C572.71,356.45,573.35,355.5,574.17,355.59Zm-3-20.19c.16,0,.4.29.57.42l-1.33,2c-.39-.53-1.09-1.06-1.1-1.61C569.31,334.83,570.52,335.52,571.21,335.4Zm-2.13-72.9a.89.89,0,0,1,.76.06l.22,3.2-.67.13a10.63,10.63,0,0,1-.92-2.15A1.43,1.43,0,0,1,569.08,262.5Zm-.47-12.08h.07l-1,2.46C567.56,251.82,566.62,250.3,568.61,250.42Zm-2.5,5.31a1.91,1.91,0,0,0,.37-.06l-.67,1.61A2.68,2.68,0,0,1,566.11,255.73Zm-.73,44c.14.21.42.45.4.65a4.56,4.56,0,0,1-.4,1.08l-.5-.76C565,300.46,565.2,300.12,565.38,299.78Zm-2.78-79.24c.11-.57,1-1,1.49-1.5a4.75,4.75,0,0,1,.82,1.11,3.47,3.47,0,0,1,0,1.25,3.77,3.77,0,0,1,0,1.26.87.87,0,0,1-1.67.11A4.3,4.3,0,0,1,562.6,220.54Zm-9.86-44.25a1.4,1.4,0,0,1-.83,1c-1.15.11-.86-.86-.82-1.48a10.68,10.68,0,0,1,.95-2.24A11.25,11.25,0,0,1,552.74,176.29Zm-1.47-10.2v-2.6h.44v2.6Zm1.07-13.92a1.23,1.23,0,0,1-.4-.63c-.13-1,.44-1.09,1.25-1.12.31,0,.61-.53.91-.82.14.22.42.45.4.65a1.64,1.64,0,0,1-.43,1.06A7.35,7.35,0,0,1,552.34,152.17Zm-.42-12.56c.1-.09.22-.28.29-.27a3.38,3.38,0,0,1,.58.27l-.31.31ZM555,205.46c-.7-.39-1.34-.63-1.32-.76.12-.73-.63-1.8.63-2.12.3-.07,1,.28,1,.44A16.93,16.93,0,0,1,555,205.46Zm3.77-83.93h-.08v.25h0a2.39,2.39,0,0,1-.85.85c-.08,0-.54-.42-.71-.72a1.38,1.38,0,0,1,0-.83c.15-.69-.52-1.77.89-1.88C558.37,119.19,558.59,119.22,558.8,121.53Zm-1.95-37.74s.06,0,.09,0l-.11.39-.26.14c-.11-.12-.21-.22-.31-.31A2.4,2.4,0,0,1,556.85,83.79ZM555,62.65l0,.09,0,0Zm-.6,4.51a6.61,6.61,0,0,1,.15,1.24c0,.12-.35.22-.54.33a5.89,5.89,0,0,1-.27-1.14C553.68,67.49,554,67.36,554.35,67.16Zm-.87-3.54c-.51,0-1.33-.09-1.39-.31S552,63.08,552,63Zm-3.64.08a3.8,3.8,0,0,1,.43,0,2.64,2.64,0,0,1,.75,1c.22.93,0,1.62-1.28,1.52-.56,0-1-.1-1.16-.43Zm.35,32.51a2.4,2.4,0,0,1-.59.27c-.07,0-.18-.17-.28-.27l.56-.31Zm-2.56,7.56a1.5,1.5,0,0,1,.89-1c2-.47,4-.83,6-1.22,0,.1,0,.21.08.31h1.28c1.37,0,2,.08,2.15.62V104l0,.29a1.5,1.5,0,0,1-.86,1c-2.14.45-4.51-.81-6.49.91-.62-1-1.67-.79-2.61-1C547.79,105.2,547.56,104.25,547.63,103.77Zm-2.68,2a.77.77,0,0,1-.63.42c-.37,0-1-.2-1-.44a8.58,8.58,0,0,1,0-2.12c.09-.11.38-.5.66-.88.36.3.94.54,1,.9A6.28,6.28,0,0,1,545,105.74Zm-1-24.72a5.54,5.54,0,0,1-.64-1.29c-.17-.78,0-1.5,1-1.27.36.09.59.7,1.08,1.34Zm-.67-22,3.8,1.7c-2.07,1.05-.9,3.07-1.19,4.64-.05.28.08.61,0,.85a5.42,5.42,0,0,1-.62.91c-.37-.29-.89-.51-1.07-.89a8.12,8.12,0,0,1-.86-2.63C543.16,62.21,543.22,60.77,543.24,59Zm.18,9.3c.25-.31,1-.33,1.53-.3a1.16,1.16,0,0,1,.86.62,7.31,7.31,0,0,1,0,1.69,9.09,9.09,0,0,1,0,1.28c0,.24-.24.64-.39.65a1.75,1.75,0,0,1-1.14-.22C543.33,71.31,542.78,69.17,543.42,68.33Zm60.63,670.23c0-2.16-1.67-1.31-2.49-1.21-3.78.46-6.14-2.06-8.81-3.94.17-1.25-.63-1.14-1.53-1.39a40.52,40.52,0,0,0-8-1.63,5.48,5.48,0,0,1-3.66-1.58c-1.68-1.79-3.83-2.68-5.91-3.63-3.53-1.6-7.14-3-10.79-4.34a39.31,39.31,0,0,0-7-2c-2.72-.44-6-1.81-5.72-6,0-.7-.62-1.45-1-2.18-1.27-2.66-3.41-4.95-3.35-8.17,0-.34-.37-.73-.65-1-1.21-1.24-2.27-2.76-3.72-3.61-1.94-1.15-4.18-2.68-6.39-2.07-1.44.41-3.25.59-4.47,1.68-1.38,1.24-2.57,2.69-3.84,4-.62.65-1.14,1.58-1.9,1.87a11.86,11.86,0,0,0-4.3,3.22,7.13,7.13,0,0,1-5.23,2.1c-2.71.11-5.14-1.15-7.7-1.27-1.74-.08-3.37-1-5.44-.08-1.85.82-4.45.41-6.6,0-4.1-.8-8.14-1.94-12.17-3.06-2.72-.75-5.52-1.14-8.14-2.34a19.82,19.82,0,0,0-8.73-2c-1.21,0-2.57.54-3.61-.76a1.64,1.64,0,0,0-1.62,0c-.77.82-1.16.43-2,0-2.47-1.3-6.93-1.07-10.17-.24-3.43.87-6.91,2.78-10.46,1.8-3.25-.9-6.44-.53-9.65-.77-.79-.06-1.56-.55-2.34-.59-2.22-.09-4.22-1.59-6.48-1.09-1.25.27-2.42-1.46-3.63,0-3.23-1.65-6.71-.55-10.06-.87-.57-.05-1.35.24-1.7,0-2.53-2-4.39-.34-6.25,1.06-.75.57-1.15.88-2.17.3s-2.16-.34-3.27-.45c-2.63-.27-5.3.48-7.93-.77a4.56,4.56,0,0,0-3.68.36c-.85.43-2-.64-3.57.09-3,1.43-6.08.66-10.22-.12a22.13,22.13,0,0,0-9.24,0c-4.3,1.08-8.49,2.25-13,2.22-1.62,0-3.3-.54-5,.58-.52.35-2.38-.5-3-1.29a38.92,38.92,0,0,1-2.95-5.25c-1-1.79-2-2.64-3.39-1.75-1,.65-1.74-.32-2.66.36-.77.57-2.24.07-3.28.41a9,9,0,0,1-3.13.88c-1,0-2.09.79-3.11.74a10.54,10.54,0,0,0-4.77,1.13c-.61.26-1.32.74-1.88.62-2.48-.53-4.65.87-7,1-1,.05-1.88,1.06-3.12.82-2.28-.44-4.33.53-6.41,1.25-3.5,1.22-6.95,2.78-10.81,2.18-1.34-.2-2.64-.68-4-.82-1.93-.21-7.09,1.06-9.53,2.11a2.25,2.25,0,0,1-1.46.26c-1.23-.51-2.89-.9-3.46-1.88a6,6,0,0,1-.2-4.17,8.91,8.91,0,0,1,2.22-3.39c1.85-2,3.92-3.85,5.79-5.87a35.18,35.18,0,0,1,9.74-6.92c4.06-2.14,7.74-4.88,11.85-7a84.29,84.29,0,0,0,9.58-6.22,96.3,96.3,0,0,1,10.27-5.6c4.63-2.41,9.74-3.73,14.54-5.74,1.94-.81,4.11-.17,5.66-1s3-.4,4.5-.71,3.18-.77,4.77-1.16l.08.37c1,0,2.22-.36,3,.07,3,1.69,6.4,2.76,8.45,5.78a3.77,3.77,0,0,1,.6,1.9c.08,2-.53,4.27.16,6,1.06,2.69.38,5.33.77,7.94.29,1.87-2,2.31-2,4A11.7,11.7,0,0,1,354,680a16.24,16.24,0,0,1-2.61,0c-3.52-.39-5.77,1.75-7.69,4.14a8.51,8.51,0,0,1-2.21,2.1,32.77,32.77,0,0,1-4.19,2.52,3.45,3.45,0,0,0-1.43,1.86c-.17.4.17,1,.42,1.52,0,.08.73-.16,1.12-.27,2.19-.65,4.25-1.65,6.38-2.43,1.89-.7,4.13-1,5.63-2,2.65-1.82,5.76-2.26,8.47-3.77,1.36-.75,3.24-.51,4.74-1.1s3-1.74,4.6-2.52c.95-.47,2.15-.52,3-1.11s1.26-1.65,2-2.37c2.5-2.46,3.09-4.9,1.77-7.81-.45-1-1.15-1.88-.91-3.13a1.79,1.79,0,0,0-.63-1.42c-1.85-1.42-2.5-3.61-3.62-5.47-1.77-2.93-2.49-3.7-5.76-4.84-2.67-.92-3.84-1.78-6.3-4.54-.47-.54-1-1-1.52-1.54a10.87,10.87,0,0,0-1.24-1.21c-.53-.38-1.56-.57-1.63-1-.16-.87-.45-1-1.28-1.26-1.14-.31-2.09-1.34-3.22-1.61a14.44,14.44,0,0,0-3.89-.05,13.17,13.17,0,0,0-3.74.4c-1.24.44-2.25-1.28-3.27-.24-1.78,1.82-4.37,1.25-6.4,2.4a23.16,23.16,0,0,1-10.19,2.51,15.78,15.78,0,0,0-6.62,1.92,30.3,30.3,0,0,0-4.3,3.27c-2.87,2.26-5.93,4-9.78,3.61a9.06,9.06,0,0,0-6.24,1.72,65.47,65.47,0,0,1-5.91,3.54c-2.31,1.22-3.9,3.22-5.78,4.92s-4,3.17-5.73,4.95-3.33,4.22-5.28,6c-4.87,4.51-9.92,8.83-14.9,13.23a2.18,2.18,0,0,1-.31.3c-1.49.93-3.48,1.52-4.36,2.85-1,1.57-2.57,2.38-3.83,3.47a26.55,26.55,0,0,1-13.15,5.86c-2.32.41-4.82.22-7,1-1.36.51-2.79.31-4,.92-1.48.76-2.78,1.61-4.57,1.61-1.62,0-3.24.75-4.85.76-3.53,0-6.92,1.55-10.49.92-.28,0-.71-.11-.84,0-2.4,2.65-7.15,3.51-6.53,8.51,0,.33-.42.7-.47,1.08a16,16,0,0,0-.32,3.76c.17,1.65,3.76,8,5.45,9.86a5.63,5.63,0,0,0,4.41,1.94c.2,0,.42.35.63.54,2.66,2.37,5.51,2.39,8.87,1.42,3.87-1.13,8-1.39,11.5-3.69.31-.2.87,0,1.29,0,1.87-.43,4-.4,5.58-1.14a13.7,13.7,0,0,1,6.36-1.48c.36,0,.71-.36,1.09-.48,3.25-1.06,6.36-2.79,10-2.1a.89.89,0,0,0,.43,0A37.7,37.7,0,0,1,264,725.13a5.37,5.37,0,0,0,2.09-.19,20.36,20.36,0,0,1,8-1.57c.84,0,1.8-.67,2.52-.43a10.47,10.47,0,0,0,2.56.28c1.33.06,2.7-1,4.06-1.52,1.53,2,2.91-.69,4.47-.17.47.15,1.25-.78,1.81-.68,2.19.38,4-.82,6.08-1.11.32,0,.69-.5.91-.42,3.64,1.38,6.94.46,10.34-1.06a24.68,24.68,0,0,1,8.45-2.51c2.62-.14,4.76-1.15,7.06-2,.5-.17,1-.82,1.39-.77a10.3,10.3,0,0,0,5.93-1.43c1.9-1,4-1.57,5.85-2.77s4.25-2.83,7.05-2.89c1.26,0,2.52-.86,4-.84a8,8,0,0,0,3.94-.85c3.08-1.76,5.24-.39,7.32,1.68a7.82,7.82,0,0,0,1.56,1.49c.37.2,1.1-.31,1.49-.12a19,19,0,0,0,9.93,2.18c1.77-.14,3.75.86,5.31-.79a8.31,8.31,0,0,0,5.68.75c2.42-.45,4.74,2.37,7.1.07,2,1.53,4.39.61,6.59.87a1.67,1.67,0,0,1,.79.17c2,1.51,4.72,0,6.76,1.53.21.16.9,0,1.14-.25a1.76,1.76,0,0,1,2.64-.23c1.08,1.12,1.56-1.28,2.44-.24,1.15,1.35,2.68.59,4,.74s2.49,1.26,4.15.15c.78-.52,2.55.49,3.89.72,2.31.41,4.58,1.22,7,.94a3.71,3.71,0,0,0,4.37.67c2-.91,4,.57,6-.62.89-.54,2.5-.08,3.72.21s2.47,1.14,3.76,1.36a25,25,0,0,0,4.33.06c2.6,0,5.2,0,7.81,0a6.36,6.36,0,0,1,2.43.39,16.17,16.17,0,0,0,7.7,1.35c1.65-.06,3.38-.29,4.84.85,1.4-1.52,3.23-.64,4.85-.85.72-.09,1.64-.3,2.14,0,3.16,2.11,6.69,1.65,10.16,1.69,2.29,0,3.51,1,3.28,3.46-.19,2.09.9,3.76,1.14,5.69a9.42,9.42,0,0,0,.75,2.25c1,2.3.71,4.68.82,7,.09,1.86,1.18,2.77,3.12,3.3a14.63,14.63,0,0,0,4.37,1c.22,1.79,2.28,1.72,3.06,3a2.88,2.88,0,0,0,1.64,1.18c2.85.65,5.49-.79,8.28-.91,2.2-2.26,5.51-3.37,6.73-6.68a39,39,0,0,1,2.3-4.26c1.62-3.11,3.77-5,7.67-4.69,3.19.26,5.87,2.81,9.27,1.85.13,0,.43.36.6.59,1.41,2,3.74,2.07,5.73,2.92,1.59.68,3.59.58,4.7,2.29,1.94,3,4,5.87,5.87,8.85a12.23,12.23,0,0,0,3.8,3.67c1.83,1.21,3.88,1.2,5.69,2a6.65,6.65,0,0,0,7-.44,6,6,0,0,1,5.65-.67c2.07.91,3.52.47,5.47,0a11.45,11.45,0,0,0,5-2.7c1.12-1,2.34-2.27,3.69-2.54,2.26-.44,3.35-1.41,3.72-3.61l3-1.07a10,10,0,0,0,2.16-.17C604.57,739.76,604.05,739.16,604.05,738.56ZM200.77,720.81a3.12,3.12,0,0,0-1.29,0l-.16.06,2.75-1.59C202.12,720.43,201.91,721,200.77,720.81Zm4.76,8c-.12.11-.47.61-.83.62a1,1,0,0,1-.42-.08L203,728a.69.69,0,0,1,0-.47c.14-.34.82-.59,1.27-.62C205.49,726.84,205.63,727.05,205.53,728.81Zm6.93-15.53c-.13.47-.49.62-1,.59ZM207.73,726c-.63-.69-1.67-1.23-1.27-2.4.16-.48.66-.85,1.27-1.59.6.74,1.1,1.11,1.27,1.59C209.4,724.77,208.36,725.31,207.73,726Zm2.11,6.1c0-.22,0-.37.07-.38,2.43-.42,1.5-2.91,2.6-4.1.24-.27.53-.5.8-.75.31.36.94.77.88,1-.47,2.36.76,2.7,2.65,2.44a1.32,1.32,0,0,1,.73.3s.06.08.09.15Zm26.65-5.37c-3-.19-5.35,2-8.27,1.89a2.59,2.59,0,0,0-1.6.25,6.61,6.61,0,0,1-.84.61l-6.27,1v0c-.17-.62-.55-1.78.9-1.87a7.7,7.7,0,0,0,2.8-.53c1.41-.62,3.12-.62,4.62-1.29a30,30,0,0,1,4.1-1.5,12.33,12.33,0,0,1,2.51-.19c.71.07,1.42.1,2.1.23.13,0,.27.47.26.72S236.58,726.74,236.49,726.73Zm12.16-2.59-.56-.31c.1-.09.22-.28.29-.27a3.38,3.38,0,0,1,.58.27Zm18.08-2.54-5.46.65a.84.84,0,0,1-.13-.38c-.2-1.44,1-.87,1.69-1.11,1-.33,1.86-1.23,3.06-.82a9.78,9.78,0,0,1,1.3.64C267,720.9,266.9,721.3,266.73,721.6Zm190.14-11.22a2.34,2.34,0,0,1-.27-.58c0-.08.17-.19.27-.29a3.38,3.38,0,0,1,.27.58C457.16,710.16,457,710.28,456.87,710.38Zm21.85,2.45a14.26,14.26,0,0,1-1.41-1.61c-.1-.14.28-.6.59-1.19l2,1.63Zm26.76,25.27a6.54,6.54,0,0,1-1.08,0l-2.31-3.46a3.19,3.19,0,0,1,1,.16,9.66,9.66,0,0,1,2.75,2.31C506,737.19,505.64,738.1,505.48,738.1Zm3.47.06a3.47,3.47,0,0,1-.27-.59c0-.07.18-.18.27-.28l.31.56Zm7.06,1.55a1.19,1.19,0,0,1-1.08,0c-.94-.91-1.88-1.18-2.94-.28s-1.14-.34-1.46-.67c-.53-.56-.54-1.34.47-1.48a19.54,19.54,0,0,1,2.54,0,6.78,6.78,0,0,1,1.69,0,1.66,1.66,0,0,1,1,.85A2.42,2.42,0,0,1,516,739.71Zm3-.58s0-.08,0-.12a22.46,22.46,0,0,1,.79-2.49,8.78,8.78,0,0,0,1-.41,3,3,0,0,0,.44.17Zm4.31-8a2.73,2.73,0,0,0-.84,1.75c.06,1.74-.84,2.39-2.34,2.88h0l.14.08-.47.18a1,1,0,0,1,.33-.26,6.87,6.87,0,0,1-.63-.45c.07.22.14.47.23.73l-.5.19a1.63,1.63,0,0,1-.24-.5,2.68,2.68,0,0,1,0-.85c.18.16.35.3.52.43-.48-1.52-.51-2.1.68-2.57s1.73-2.62,1.44-4.38c0-.16.53-.5.86-.61.18-.06.64.13.68.29C523.41,729.06,524.44,730,523.3,731.14Zm16.38-12.76c-.06.37-1,.58-2,1.08a8.65,8.65,0,0,1-.49-2.34c.1-1.07,1.08-.67,1.68-.64C540.33,716.54,539.8,717.75,539.68,718.38Zm5,6.63-.56-.31c.1-.09.21-.29.29-.27a3.38,3.38,0,0,1,.58.27Zm18.85,13-1.71-1.12a1.47,1.47,0,0,1,.75-.39,11,11,0,0,1,2.68.71C564.36,737.56,563.87,737.83,563.52,738Zm6.24,4.08-1.39-.91a2,2,0,0,0,.08-1.32c0-.15.47-.6.6-.56.62.23,1.44.44,1.73.92a1.09,1.09,0,0,1,.1.25Zm8.12,2.34a4.46,4.46,0,0,1-1.46,2l-4.54-3a3,3,0,0,0,.09-1.25c-.09-1,1.19-1.21,2.34-.56.59.33,1.42.59,1.65,1.11C576.39,743.71,578.49,742.94,577.88,744.4Zm-2.6-11.14c-2.42-.86-4.65-2.22-7.38-2.09-.58,0-1.19-.55-1.8-.82-4.16-1.9-8.88-2.1-12.94-4.31-.25-.14-.76.19-1.14.3-1.77.53-2.59.06-2.69-1.64a25,25,0,0,1,0-3.46c0-.45.4-1.22.65-1.24a3.63,3.63,0,0,1,1.84.42c-.09,1.4.83,1.21,1.69,1.27a1.4,1.4,0,0,1,1,.55c2.19,3.62,2.36,3.72,6.17,3.77,1.55,0,3.21-.5,4.09,1.68.24.61,1.93.76,3,.88s2.22,0,3.07,1.06a3.35,3.35,0,0,0,1.84.7c1.75.34,3.63.31,5.23,1,1.37.56,2.43,1.87,3.9,3.06C579,735.19,577.16,733.93,575.28,733.26Zm19.52,8.2c-1.13-.35-2.13-1.17-3.27-1.4-2.4-.5-4.19-2.32-6.59-2.81-1.42-.28-1.22-1.86-1.74-2.85,0-.09.3-.53.5-.55.55-.07,1.3-.23,1.67,0,3.12,2.35,7,3.29,10.1,5.72a5.67,5.67,0,0,1,.7.85C595.62,740.89,595.09,741.55,594.8,741.46Zm-326.71-315a6.71,6.71,0,0,0,.94,3.05,33.26,33.26,0,0,0,4.58,4.61,2.93,2.93,0,0,0,4.73-1.07,10,10,0,0,0,1-3.93,53.4,53.4,0,0,1,1.9-11.83,29.71,29.71,0,0,0,.74-7c0-2.6,0-5.21,0-7.81a6.66,6.66,0,0,1,.16-2.54c1.29-2.87,1.09-6.05,2.26-9s.77-6.34,1-9.55c.06-.71-.2-1.54.06-2.14,1.5-3.4,1.64-7,1.73-10.59.07-2.78.09-5.7,1-8.26a23.06,23.06,0,0,0,.73-4.9c.23-1.77.55-3.53.86-5.29.21-1.22-.24-2.43.45-3.73.36-.69-1-2.11.41-3-1.21-1.41.76-3.09-.27-4.36a4.54,4.54,0,0,1-.45-4.49,15.35,15.35,0,0,0,.72-5.33c0-.43-.16-1.1.05-1.26,1.35-1,.38-2.5.88-3.56.64-1.33-.15-2.44-.06-3.65a9.48,9.48,0,0,1,.21-2.52,19.74,19.74,0,0,0,1.53-8.48c0-.43-.19-1,0-1.28,1.54-1.81.23-4.16,1.2-6,1.13-2.2.19-4.5.5-6.73.08-.56,0-1.16.1-1.7.86-3.55.79-3.53.08-6.76a8.33,8.33,0,0,1,.06-3.75,40,40,0,0,0,1.54-8.48c.14-3.36.55-6.71.83-10.06,0-.14,0-.35,0-.41,1.61-1.41.52-3.26.83-4.87.33-1.76,1.22-3.38.91-5.29a24.15,24.15,0,0,1,0-3.9c0-1.3.09-2.61,0-3.9-.09-1.08,1.45-2.13,0-3.19a5.79,5.79,0,0,0,.89-3.55c-.1-1.29,0-2.6,0-3.9,0-.29-.12-.74,0-.85,1.45-1.1.6-2.66.85-4a21.63,21.63,0,0,0,.81-4c0-2.54,1.55-4.86.92-7.45,1.4-1.42.67-3.22.88-4.85s.7-3.51.83-5.28c.37-4.8.61-9.6.9-14.4,0-.28-.11-.63,0-.86,2-3.88,1.58-8.28,2.45-12.41.73-3.51-.14-7.31,1-10.9.39-1.24,1.09-3.15.54-3.76-1.63-1.81.32-2.88.41-4.26.29-4.37,1.65-8.57,2.72-12.77a18.44,18.44,0,0,0,.66-4.89,17.57,17.57,0,0,1,.4-5.21c.13-.37.51-.74.48-1.09-.34-4.55,1.28-8.94,1-13.53-.2-3,.49-6.12.77-9.18,1.59-1.3.26-3.33,1.16-4.72,1-1.62.31-3.34.59-5,.23-1.34.69-2.65.83-4s0-2.89,0-4.34c0-.24.25-.47.34-.72,1.17-3.36,2.79-6.62,2.25-10.35,1.92-3.14.23-6.82,1.61-10.18.9-2.21-.44-5,.95-7.42.2-.35-.16-1-.32-1.56s-.58-.89-.46-1.07c1.71-2.66.4-5.59.85-8.34.12-.79.69-1.53.71-2.29,0-2.68,4.32-6.19-1.45-7.77-.39-1.79-.22-4.34-3.34-2.47,0,0-.19-.19-.29-.29a9,9,0,0,0-6.92-2.13,2.49,2.49,0,0,1-1.19-.16l-.45-.37a2,2,0,0,1-.33-1,1.39,1.39,0,0,0-1.1-.2c-1.1.79-2.1,2.22-1.7,3.23a1.23,1.23,0,0,1-.92,1.81,11.31,11.31,0,0,1-2.56.12,2.08,2.08,0,0,0-1.29.67c-1.26,1.73-.75,3.77-.93,5.7-.12,1.29.79,1.84,1.52,2.4,1.08.83,1.09,1.85,1.15,3a26,26,0,0,1-.82,6.16c-.45,2.45,0,5-.83,7.48-.65,1.88-.18,4.06-.87,6.15-.62,1.9-.57,4.09-.83,6.13-.72,5.75-.74,11.6-1,17.41-.06,1.15.44,2.71-.13,3.38-1.26,1.47,0,3.32-.91,4.41-1.31,1.65-.27,3.35-.43,5-.38,2.32-.89,4.63-1.11,7a18,18,0,0,0,.07,6c.52,1.93-2.21,3.6-.13,5.4-1.55,1.21-.25,3.09-.94,4.35a10,10,0,0,0-1.6,5.84c.22,2.16-.67,4.09-.9,6.15-.33,3.06-.21,6.23-1,9.15-.53,2-.05,4.13-.86,5.69-2.05,4-1.15,8.38-2.37,12.47-.7,2.33-.39,4.93-.81,7.44-.75,4.49-1.23,9.06-1.79,13.59-.24,2-2.28,4.14-.11,6.21-1.78,3.22-.65,6.71-.81,10.06-.11,2.3-.64,4.72.62,6.94-1.44,1.79-.61,3.88-.6,5.79a32.66,32.66,0,0,1-.93,5.72,61,61,0,0,0-.85,6.58c-.15,2.31-.08,4.63,0,6.94a9.08,9.08,0,0,1-.8,2.71c-.59,2.23-1.85,4.64-.71,6.87a6.93,6.93,0,0,1,.6,3.23c.06,2.17,0,4.34,0,6.51a39.22,39.22,0,0,1-1.7,12.31c-.52,1.69-.27,3.68-1,5.23-.84,1.77-1.1,3.25-.05,4.9-2,.76,0,2-.3,3.05-1.33,4.94-2.63,9.95-2.18,15.18.09,1.13.39,2.62-.18,3.35-1,1.24-.44,2.46-.68,3.66s-.66,2.64-.84,4a71.27,71.27,0,0,0-.92,13.53,8,8,0,0,1-.52,1.94,98.69,98.69,0,0,0-2,11.3c-.43,3.63-.61,7.28-.9,10.92,0,.15.06.35,0,.43-1.62,1.87-.33,4.17-.92,6.14a24.59,24.59,0,0,0-.84,6.6c-.11,5.38.62,10.8-.77,16.15-.21.8-1.1,1.6-.17,2.81.56.73.22,2.25.07,3.39s-.84,2.1-.78,3.11c.42,7.15-.67,14.23-.94,21.34-.07,2.07.53,4.22-.8,6.19a2.19,2.19,0,0,0,0,2.07C268.28,424.3,267.91,425.43,268.09,426.51Zm51.24-365c0-.06.13-.15.35-.26l.43,2.38H320C318.7,63.31,319.44,62.24,319.33,61.51Zm-6.44-13.35.31.31a3.38,3.38,0,0,1-.58.27c-.07,0-.19-.18-.29-.27ZM312.12,59c-.1.27-1,.39-1.5.27a1.56,1.56,0,0,1-.86-1,39.47,39.47,0,0,1-.86-4.33c0-.22.45-.51.83-.91.37.39.8.63.83.92.17,1.25-.48,2.85,1.62,3.18A3.73,3.73,0,0,1,312.12,59Zm-3.2-10c.11-.46.79-.77,1.54-1.45.46.81,1,1.31,1,1.75a8.41,8.41,0,0,1-.85,2.61,1.17,1.17,0,0,1-1,.44,1.1,1.1,0,0,1-.65-.81A7.46,7.46,0,0,1,308.92,49ZM500.71,478.24c-.4-1.6.58-2.95.84-4.42.82-4.64,1.88-9.26,1.77-14,0-.56-.17-1.34.13-1.66,1.66-1.79,1.08-4.25,1.92-6.16,1-2.17.29-4.21.51-6.29a10,10,0,0,1,.85-3.57,44.62,44.62,0,0,0,2.18-6c.5-1.59.74-3.23,3.13-2.67.74.17,1.14-.87.6-1.45-.38-.41-.9-1.1-1.26-1-1.94.29-2-.74-2-2.24a17.39,17.39,0,0,1,.85-5.3c.51-1.69-.62-3.71.92-5.26-.66-5.72,1.76-11.41.71-17-1-5.29-.59-10.49-.61-15.72,0-3.33,1-6.64.84-10.06,0-.82.77-1.67,1.09-2.55.66-1.77,1.59-3.47,1.47-5.48,0-.93-.39-2,.66-2.77a1.21,1.21,0,0,0,.15-1.18c-1.08-1.51-1.46-3.72-.68-4.75,1.15-1.51-.06-3.43,1.5-4.71.42-.33,0-1.86-.25-2.8-.31-1.3-1.33-2.69-1.06-3.81a27.76,27.76,0,0,0,.54-3.92c.14-1.36-.59-2.87.72-4.06a1.26,1.26,0,0,0,.1-1.21c-1.11-1.65-.19-3.84-1-5.22-1.37-2.42.12-4.14.48-6.15.23-1.22.91-2.78.42-3.64-2-3.53-.18-6.8.46-10.07.21-1.06.37-2.14.5-3.22.23-1.92,1.22-2.41,2.94-1.36a5.05,5.05,0,0,1,1.25,1.15c.71.89,2-.77,2.53.57.47-.25,1.09-.39,1.39-.77.72-.92,1.82-1.4,2.61-.89,1.1.71,2.5,1.52,2.31,3.27-.08.84.17,2-.27,2.47-1.79,2.05-1.42,4.44-1.48,6.79,0,.82.29,1.68-.57,2.39-.32.26-.33,1.07-.26,1.59.16,1,1,2.46.62,3-.86,1.1-.65,2.17-.6,3.24s-.7,2.13-.82,3.13c-.51,3.9-.79,7.84-.92,11.78-.08,2.53.16,2.56-.73,4.19-1.06,1.93-1.06,4-1.08,6.08,0,1.51,2,2.76.16,4.6-.9.89.59,3.1-1,4.31-.07.06,0,.28,0,.43.26,1.89,1.16,4,.63,5.63-.62,1.88-1,3.31,0,5.1.25.45-.57,1.4-.63,2.15a18.44,18.44,0,0,0,0,4.33c.2,1.24-.78,2.17-.25,3.69a7.19,7.19,0,0,1-.55,5.71c-.93,1.73.68,4.23-1,6.09.07,3.38-1.44,6.63-.86,10a6.84,6.84,0,0,0,.52,2.38c.46.77.1,1.15-.12,1.84-.38,1.17-.86,2.92-.29,3.65,1.18,1.52.55,3,.74,4.5.33,2.77.48,5.56.91,8.31a4.09,4.09,0,0,0,5.92,3c2.84-1.32,5.09.84,7.65.58,1,1.34,2.46,2.56,2.77,4,.5,2.35,1.29,4,3.59,5,1.33.58,1.16,1.73-.13,2.64-2.29,1.62-4.33,1.57-6.8-.1-.55-.37-1.32-.49-1.76-.95-2.64-2.81-5.94-3.78-9.69-3.92a6.56,6.56,0,0,1-3.32-1.32c-1.36-1-1.74.25-2.42.81-.16.13-.17.51-.18.78a28.17,28.17,0,0,1-.75,6.61c-.55,2.17-.12,4.6-.12,7.29.47,5.61-1.54,11.48-.87,17.48a13.18,13.18,0,0,0-.88,6.15,10.46,10.46,0,0,1-1.71,5.36.58.58,0,0,0,0,.43c.93,3.26-1.74,5.36-2.69,8-.33.93-1.55,1.56-2.4,2.28s-1.78,1.34-2.58,2.1c-.18.17-.05.78.08,1.13.06.15.51.29.73.23.67-.18,1.44-.29,2.09-.51l.53-.24a2.8,2.8,0,0,0,.4-.27c1.44-1.31,2,.32,2,.75.13,1.49.36,3-.68,4.47-.45.64-.61,1.12-1.43,1s-2.12.08-2.86-.39c-1.3-.84-1.22.67-1.88.82.23.43.34,1,.7,1.28,1.43,1,2.94,2,4.4,3a2.13,2.13,0,0,1,1,2.19c-.37,2.91.27,5.81-.73,8.81-.78,2.34-.4,5.18-.08,7.75s-.83,4.65-1,7c-.11,1.29,1.05,2.33.29,3.71-.65,1.16.27,2.85-1.07,3.89.61,3-1,5.79-.88,8.75.07,2.17.44,4.46-.11,6.48s-.09,4.15-.91,5.66c-1.05,1.95.15,4.28-1.55,5.89-.15.14,0,.56,0,.85-.28,3.35-.68,6.7-.83,10.06s0,6.65,0,10a19.71,19.71,0,0,1-.76,6.62c-.71,2,.56,4.52-1,6.55,1.36,1.06-.11,2.11,0,3.19.12,1.43,0,2.89,0,4.33,0,1.25-.22,2.51.82,3.59.29.3-.15,1.2.07,1.68.92,2-2.37,3.86-.14,5.85,0,2.15.09,4.31.11,6.46s0,4.34,0,6.51c0,2.9-1.37,4.08-4,3a3.4,3.4,0,0,0-3.38,0c-1.21.56-2.8.18-4.38-.49-3.34-1.4-6.71-3.17-10.57-2.79a1.29,1.29,0,0,1-1.07-.44,1.21,1.21,0,0,1,.27-1.12c1.33-1.25,2.78-2.38,4.11-3.64.87-.83,1.91-1.57.86-3.16-.41-.61.12-1.87.29-2.83.07-.38.47-.73.47-1.09,0-3.91.93-7.65,1.68-11.45.42-2.08,0-4.33.1-6.49.18-2.92.67-5.83.79-8.75a8.26,8.26,0,0,0-.62-4.07c-.61-1.33,0-3.63.85-5.1a6.64,6.64,0,0,0,.68-3.2c.08-1.58-.3-3.29.21-4.7s-.58-2.69-.26-4.14a45.72,45.72,0,0,0,.9-7c.14-2.3-.35-4.71.14-6.91s.28-4.38.46-6.52,0-4.51.3-6.74c.24-1.77-.53-3.63.78-5.35.34-.44-.82-2-.49-2.45.79-1,.5-1.9.56-2.84,0-.77,1.48-1.55,0-2.32,1.44-2.8.49-5.85.92-8.74a28.91,28.91,0,0,1,2-7.83,7.67,7.67,0,0,0,.47-4.11,9,9,0,0,1,1.37-5.52c1.26-2,1.24-3.91,1.31-6,.16-4.66,1.35-9.25.9-14,0-.45.65-.93.7-1.42C499.88,482.28,501.25,480.41,500.71,478.24ZM425.31,735c.2-2-1.88-2.43-2-4.06,0-.23-1.43-.36-2.2-.56a8.91,8.91,0,0,1-1.13-.4c-3-1.22-5.9-2.52-8.9-3.65-2-.75-4.12-1.21-6.16-1.87s-4.21-1.72-6.58-2a15.27,15.27,0,0,1-5.33-1.71,40.58,40.58,0,0,1-4.69-3.35,9.88,9.88,0,0,0-2.73-1.75,68.87,68.87,0,0,0-8.38-1.74,9.46,9.46,0,0,0-6,1.23c-3.66,2-7.3,4-11.8,4.06a14.37,14.37,0,0,0-8.8,3.71,4.78,4.78,0,0,0-1.74,5.23,10.1,10.1,0,0,1,.77,2.72,2.14,2.14,0,0,0,.66,1.43c1.19.88,2.41,2,3.77,2.32,3,.64,5,3.3,8.09,3.56,1.12,1.9,3.38,1.62,5,2.6a19.19,19.19,0,0,0,5.3,1.91c2.22.58,4.29,1.71,6.7,1.59.34,0,.67.47,1,.59,2,.69,4.08,1.87,6.12,1.88,4.68,0,7.89,2.77,11.32,5.21.63.45.87,1.43,1.49,1.94.87.73.29,2.55,2.16,2.56,1.18,0,2.35.67,3.55.78,1.57.14,3.17,0,4.76,0,.72,0,1.58-.22,2.12.1,3,1.77,5.19.13,7.43-1.49.66-.48,1-1.16,2.09-1.29a3.3,3.3,0,0,0,3.07-3.81,10.79,10.79,0,0,1,.55-2.35c.48-2.28.94-4.57,1.33-6.48C425.83,739.32,425.09,737.09,425.31,735ZM364,737.24a24.91,24.91,0,0,1-3.5-1.76c-.25-.16-.49-.87-.36-1.05a3.91,3.91,0,0,1,1.18-.78c.55.21,1.23.35,1.23.5,0,1.39.85,1.44,1.92,1.46.28,0,.56.68.84,1C364.84,736.87,364.29,737.36,364,737.24Zm14.25,4.58-2.16-.81c-.24-.24-.39-.42-.35-.45a2.9,2.9,0,0,1,1.29-.64c1.29-.06,1.29,0,1.3,1.71Zm7.8-.17h.06a3.09,3.09,0,0,1,2.41,1.52Zm8.37,4.41c-.57-.1-1.14-.11-1.64-.25l-1-.61a2.36,2.36,0,0,1-.44-2,1.7,1.7,0,0,1,.4-.64,9.25,9.25,0,0,1,2,1.17c.35.3.34,1,.64,1.38a3.43,3.43,0,0,0,1.1.62ZM397.33,736c-.42.67-1,1.78-2.17.48-.31-.36-1.38-.11-2.09-.05-3.94.32-7.57-.94-11.22-2.12-.12,0-.21-.29-.31-.28-3.79.28-7.2-1.56-10.86-1.9a6.18,6.18,0,0,1-4.61-2.39,20.75,20.75,0,0,1-1.78-4c.74-.77,1.65-1.64,2.47-2.56a2.23,2.23,0,0,1,2.66-.46,82.2,82.2,0,0,1,9.34,3.5,12.27,12.27,0,0,0,6.3,1.45,3,3,0,0,1,2.86,1.44,3.06,3.06,0,0,0,3,1.23c1.83-.17,3.4.76,5,1.5C398.72,733.2,398.87,733.58,397.33,736Zm2.24,10.84a3.38,3.38,0,0,1-.27-.58c0-.08.18-.19.27-.29l.31.56Zm3.48-16.5.31.31-.31.56c-.1-.09-.29-.21-.27-.28A2.4,2.4,0,0,1,403.05,730.34Zm1.25,17.54a1.45,1.45,0,0,1-1.22.64,2.89,2.89,0,0,1-1.33-.83,6.53,6.53,0,0,1-.87-1.08c.43-.21.87-.44,1.31-.63a1.22,1.22,0,0,1,.43,0C404.22,746,404.75,746.52,404.3,747.88Zm4.39.66c-.28,0-.86-.47-.82-.62a17.64,17.64,0,0,0,.77-2.62c.08-1.44,1.08-1.17,1.77-1,.44.1.74.83.87,1A3,3,0,0,1,408.69,748.54Zm7.81,2.66c-.15,1.4-1.25.65-1.93.84-.11,0-.25-.08-.86-.3.27-.24.41-.43.47-.4.91.35,1.34-1.32,2.31-.55C416.56,750.84,416.52,751.06,416.5,751.2Zm4.59-2.42a.67.67,0,0,1-.2-.43c.08-.86-.67-2.26,1.54-2.41ZM317.92,544.69a2,2,0,0,0,.81-1h1.85a12.24,12.24,0,0,1-1.81-.13,1.39,1.39,0,0,0-.5-1.34,7.71,7.71,0,0,0-3.86-2.28c-1.08-.23-2-1.05-3-.09s-2,1.58-1.73,3.2c.32,1.89,0,3.78.79,5.76,1.07,2.58-.62,5.07-1.64,7.46-1.17,2.72-1.32,3.42.17,5.29,1,1.26,1,2.11,0,3.33a11.63,11.63,0,0,0-2.73,8c0,.86.31,2-.13,2.52-1.16,1.29-.51,2.72-.74,4.06s-.65,2.94-.84,4.42c-.25,1.91.09,3.79-.76,5.77-.78,1.81,0,4-.85,6.15-.75,2-.6,4.38-.79,6.55-.17,2-2.47,4-.35,6.15-1.47,1.29-.44,3-.74,4.47a40.34,40.34,0,0,1-.9,4.4,20.43,20.43,0,0,0-.87,7c0,.64-.5,1.28-.53,1.93-.14,2.7-.25,5.41-.21,8.11,0,.35,1.2,1.1,1.42,1,2-1.25,4.23-.11,6-.54,1.94,0,3.53.06,5.12,0a4.52,4.52,0,0,0,3.89-3.43c.35-3,.55-6.12.9-9.18.36-3.31.88-6.59,1.21-9.9.09-1-.68-2.27-.27-2.84,1-1.33.62-2.69.8-4s.75-2.94.82-4.42c.35-8.41.62-16.82.89-25.24.05-1.73,0-3.47,0-5.21a8.44,8.44,0,0,1,.53-2.81c1.21-3.17.32-5.9-1.93-7.56-1.44-1.06-1.55-1.57-.67-2.72s1.67-2.19,2.44-3.33c1-1.48.17-2.76-.28-4.24-.52-1.69-1.57-.78-2.37-1s-1.69-1.4-1.18-2.09A9.33,9.33,0,0,1,317.92,544.69Zm-8.23,80.62c-.07.39-.52.71-.78,1l-.91-.62,1.47-2A5.5,5.5,0,0,1,309.69,625.31ZM454.75,687c-.12-.18.62-.86.77-1.36.64-2.15-.3-4.24-1-6.06a5.64,5.64,0,0,1,.08-4.59c1.62-4.45,5.08-6.19,9.22-7.12.95-.21,1.92,0,2.69-.9s1.44,1.76,2.38.15a.84.84,0,0,1,.77-.15c3.37,2.07,7.26,3.29,9.74,6.78a12,12,0,0,1,2.21,6.05c.11,1.08-.45,2.34.79,3.14a2.9,2.9,0,0,0-.8,2.65c.06.71-.3,1.77.06,2.11,1.69,1.58.17,3.81,1.38,5.56a2.09,2.09,0,0,1-1,3.17c-3.5.68-7,1.19-10.85,1.82a4.61,4.61,0,0,1-1.68-.48c-1.82-1.32-3.88-1.24-6-1.34a38.33,38.33,0,0,1-6.57-.91c-.58-.13-1.21-1.19-1.34-1.91C455.22,691.45,456.19,689.11,454.75,687ZM320.34,521.38c1,1.41,1.82,2.66,2.66,3.92a3.16,3.16,0,0,1,.59,1.05c.1.56.27,1.36,0,1.7-1.92,2.24,0,5.17-1.59,7.62-1.22,1.86-2.28,3-4.56,2.84a9,9,0,0,0-2.59,0c-1.88.38-2.29-2.08-4-1.94a19.89,19.89,0,0,1-.64-4.14,5.32,5.32,0,0,1,1.19-2.93c1.22-1.5,2.88-2.6,3.09-4.83.08-.8,1.95-1.19,1.08-2.34-.34-.46-1.62-.12-2.39-.39s-1.44-.69-1.6-1.22c-.48-1.56-.63-3.21-1-4.81-.58-2.55.92-4.54,1.93-6.57.53-1.05.78-1.49,0-2.49-.63-.78-1.23-2.19-.93-3,.69-1.86.84-4,2.31-5.54a1.16,1.16,0,0,1,.89-.35,35.89,35.89,0,0,1,6.43,2.28,4.21,4.21,0,0,1,2.29,3.63c-.2,3.17.83,6.11,1,9.19a8,8,0,0,1-2.95,7C321.15,520.52,320.76,521,320.34,521.38ZM520.52,298.31c-.56-1.07-1.73-2.39-1.45-3.2.65-1.92.36-4.1,1.61-5.82.17-.23.57-.58.63-.54a17.19,17.19,0,0,1,3.28,2.47,3.53,3.53,0,0,1,.39,2.39c-.26,3,1.13,5.28,2.72,7.55,1.2,1.71.95,1.59-.76,3.33s-4.11,1.3-6.07,2.18c-.83.37-1.16-.25-1-2.24a5.35,5.35,0,0,1,.61-1.36C521.63,301.47,521.36,299.92,520.52,298.31Zm7.55-100.26a3.43,3.43,0,0,1-.38-2.78A17.31,17.31,0,0,1,530.4,190c.73-.86,2.44-.92,3.72-1.29,1.09-.32,1.55.62,2.07,1.23a8.42,8.42,0,0,1,1.77,2.7c.25.74.21,1.38,1.2,1.27s1.62.14,1.5,1.37c-.1,1,0,2,0,3s.05,2,0,3a2.26,2.26,0,0,1-2.94,2.11,4.42,4.42,0,0,1-1.77-.89,1.51,1.51,0,0,1-.29-1.39c.25-.37.51-.72.77-1.07l-3.27-3.28c-.55.21-1.1.41-1.64.63-.37.15-.62.73-1,.77C529.68,198.26,528.37,198.47,528.07,198.05ZM274.21,493.86c-1.25,2.14-2.36,4.16-5.3,3.84-.79-.05-1.74.36-1.76-1.12,0-1.18-2.84-1.42-1.17-3.39a6.17,6.17,0,0,0,.93-2.61c.5-2.15,2.24-3,3.94-3.88s3-.06,3.26,1.81a4.82,4.82,0,0,0,.79,2.73C275.43,491.9,274.76,492.94,274.21,493.86Zm-9.73-29.16c-.3-1.61.37-2.36,1.84-3.14a62.07,62.07,0,0,0,6-4.16c1.41-1,1.78-.41,2.75,1.12,1.36,2.13-.79,3.86-.14,5.8,0,0-.93.47-1,.36-.92-.93-1.53-.55-2.23.29a17,17,0,0,1-2.12,2.12c-.5.44-1.16,1.07-1.68,1a5.66,5.66,0,0,1-3-1C264.45,466.68,264.61,465.52,264.48,464.7ZM532.81,244c.06-1,0-2,0-3a5.55,5.55,0,0,0,0-1.29c-.79-3.38,2-4.72,3.83-6.55.9-.9,3,.24,3.1,1.64.1,1.78.27,3.59-.82,5.23a10.19,10.19,0,0,0-.88,2.21,3.77,3.77,0,0,1-3.95,2.92C533.22,245.11,532.76,244.91,532.81,244Zm7.52-16.29a36.33,36.33,0,0,1-2.27,3c-.76.87-1.7.74-2.65.09a2.93,2.93,0,0,0-1.54-.43c-1.07,0-1.15-.64-1-1.4.21-1.34,1-2.5.92-4,0-1.31.67-2.64.76-4,.14-1.9,2.1-1,2.75-2,.55.58,1.38,1.08,1.58,1.76C539.44,222.88,539.79,225,540.33,227.66Zm-273.18,253c1.41-1.69.79-3.5-.09-5.26-1-2-1-2,1.09-2H269c1.36.08,2.81-.34,4,.85.55.56,1.88.91,1.89,1.36a9,9,0,0,1-.9,3.48c-.12.29-1,.31-1.52.38-2.21.31-2.58.7-2.68,2.85,0,.43,0,.87,0,1.3-.05,1.9-.66,2.41-2.63,1.9-1-.26-2.21-.59-.92-2.21C266.69,482.73,266.43,481.53,267.15,480.67ZM523.28,253.1c0-.72,0-1.44,0-2.16a5.12,5.12,0,0,1,5.42-5h2.38v3.49c0,3.51-.41,4-4.28,5.2l-.75.25C523.31,255.89,523.3,255.89,523.28,253.1Zm1.08,7.73c1.22,0,1.72-1.43,3.41-.68a1.78,1.78,0,0,0,.7.14l3.57-3.06a17.9,17.9,0,0,1,2-2.5.83.83,0,0,1,.79-.07c.26.24.58.67.54,1-.26,1.76-1.27,3.38-.9,5.28,0,.14-.82.67-1.23.63-1.44-.13-2.66.2-3,1.66-.46,1.93-1.79,1.9-3.26,1.86-1.14,0-2.27,0-3.72,0,0-.71-.11-1.07,0-1.27C523.89,262.83,522,260.74,524.36,260.83ZM273.1,443.32c2.57,1.06,2.76,1.37,2.78,4.72a12.24,12.24,0,0,1-.52,2c-.62,1.62-.66,1.6-2.2,1.69-1.16.06-2.5-.5-2.82,1.51-.11.64-2.45-.44-2.21-1.48.69-3,.73-6.3,3.54-8.36A1.69,1.69,0,0,1,273.1,443.32Zm.17,57.72c.31,1.09-.87,3-2.28,3.7a5.83,5.83,0,0,1-1.83.74c-2.09.22-3.24-.93-2.77-3a10.9,10.9,0,0,1,1.82-3.51c.23-.35,1-.33,1.15-.38C271.06,498.61,273,500,273.27,501Zm255.65-213.5a10.91,10.91,0,0,1-.62-2.05,7.12,7.12,0,0,1,1.26-1.91,4.91,4.91,0,0,1,2.5-1.1c1.2-.09,2.64,2.3,2.5,3.83-.09,1-2.07,3.11-2.95,2.93C530.57,289,530.34,287.39,528.92,287.54Zm3.67-71.1c-.85,0-1.72,0-2.57,0-.63,0-1.41.3-1.57-.86s.42-2.31,1.26-2.42a39.8,39.8,0,0,1,6.82-.1c.24,0,.55,1.09.6,1.69s.44,1.58-.67,1.67C535.18,216.52,533.88,216.44,532.59,216.44ZM266.32,439.54a25.36,25.36,0,0,1,0-3.87,2.67,2.67,0,0,1,3.21-2.21c1.48.25,2.14,1.29,2,3.06a3,3,0,0,1-3.29,3ZM525.91,205a4.25,4.25,0,0,1,1-2.13,3.28,3.28,0,0,1,2-.34,3.33,3.33,0,0,1,2,.33,3.84,3.84,0,0,1,1,2.13c.18,1.2-2,2.73-3.68,2.73C527.35,207.76,525.71,206,525.91,205ZM552,440.4c-.69.37-1.42.69-1.77.86-1.76.05-3.06-1.24-2.55-2.39a6.33,6.33,0,0,1,2.33-2.73c.83-.51,1.79.14,2.56.93C554.12,438.7,554.08,439.27,552,440.4ZM534.62,251.74a7.87,7.87,0,0,1,2.42-3.09,2.66,2.66,0,0,1,2.61.46,3.18,3.18,0,0,1-.26,2.76,17.37,17.37,0,0,1-2.74,2.85,5.51,5.51,0,0,0-.57-1.55C535.66,252.62,534,253.05,534.62,251.74ZM521,285.7c-.07,0-.05-.45.06-.57,1-1.11.29-2.45.53-3.66a2.35,2.35,0,0,1,2.54-1.66,2.18,2.18,0,0,1,1.79,2.41c0,.26-.07.74-.17.76-1.83.3-2.49,2.16-4,2.89C521.54,286,521.19,285.82,521,285.7Zm9.26,8.41c-.27.77.76,2.16-1,2.19-1.61,0-2.35-.75-2.43-2.57,0-.28,0-.56,0-1.29.09-.2.18-1,.62-1.29a3.13,3.13,0,0,1,3.36.93c.11.2-.13.58-.21.88S530.34,293.74,530.22,294.11Zm1.31-16.74c-.79-1.06-2.14-2.1-2-2.88a3.47,3.47,0,0,1,2.47-2.31c.86,0,1.71,1.5,2.57,2.35ZM277.61,438.91a1.47,1.47,0,0,1,0,.42c-.19.69.56,1.79-.85,1.95-.89.09-1.78,0-2.14-.89a3.19,3.19,0,0,1-.26-2.25,6.42,6.42,0,0,1,2.08-2c.15-.1,1,.37,1.12.7A7.72,7.72,0,0,1,277.61,438.91Zm266.29-7c.6.3,1.19.62,2,1.05-1.23,1.07-1.93,2.57-3.7,2.18-.52-.11-1.43-.21-1.48-.44a3.14,3.14,0,0,1,.27-2A2,2,0,0,1,543.9,432Zm-3.31-223.77a2.85,2.85,0,0,1-.83,1.36,18.91,18.91,0,0,1-1.57,1.4l-1.32-2.16c.41-.85.59-1.8,1.16-2.22s1.52-.3,2.3-.42A8,8,0,0,1,540.59,208.19Zm-19,66.41c-.25-.85.28-1.49.74-2.24.34-.56.23-1.43,1.17-1.18.31.09.48.82.64,1.28a2.62,2.62,0,0,1,0,.84c0,.57.2,1.26-.06,1.67a1.72,1.72,0,0,1-1.43.45A1.51,1.51,0,0,1,521.58,274.6Zm3.48-43.39a2.79,2.79,0,0,1,.89-1.35,10.63,10.63,0,0,1,1.51-1l.8,1.93c-.25.54-.41,1.45-1,1.89a2.37,2.37,0,0,1-2,0C525.08,232.63,525,231.7,525.06,231.21ZM551.32,443.8l1.47.7-2.19,2.83c-.64-.69-1.41-1.22-1.32-2.42C549.38,443.47,550.34,444,551.32,443.8ZM530.43,218.19a5.67,5.67,0,0,1,1,.38c-.73,1-1.12,1.55-1.54,2.07,0,0-.5-.21-.51-.35a10.46,10.46,0,0,1,0-1.68c0-.1.17-.25.28-.29A1.67,1.67,0,0,1,530.43,218.19Zm-108.69,242-.9,0V457l.68,0C421.6,458.07,421.67,459.13,421.74,460.2ZM567.85,179.84a5.8,5.8,0,0,1-.27-1.13c0-.11.34-.23.66-.43a6.52,6.52,0,0,1,.15,1.23C568.38,179.63,568,179.73,567.85,179.84Zm-43.22,62.07-.48.14c.09-.38.06-.87.29-1.12.7-.79.63-2.63,2.46-1.91a3.43,3.43,0,0,1,.77.62,2.41,2.41,0,0,1-2.33,2.09,3.16,3.16,0,0,0-.53.13l-.23.19A.58.58,0,0,1,524.63,241.91Z" transform="translate(-195.16 -41.88)"></path> </svg> 