<svg xmlns="http://www.w3.org/2000/svg" viewBox="0 0 41.93 41.99"><defs><style>.cls-1{fill:#f7f7f7;}</style></defs><g id="Слой_2" data-name="Слой 2"><g id="Слой_6" data-name="Слой 6"><path class="cls-1" d="M22.31,40.58s.4,0-.23.08a19.05,19.05,0,0,1-5.58-.51h-.15l-1.13-.31c-.38-.12-.75-.28-1.12-.41a19.26,19.26,0,0,1-2.22-1,19.72,19.72,0,0,1-6.81-5.85c0,.07,0,.11-.14-.13A19.19,19.19,0,0,1,3.75,30.6c-.21-.35-.37-.75-.56-1.14a9.55,9.55,0,0,1-.53-1.22l-.28-.74a1.28,1.28,0,0,0-.13-.26c-.27-.77-.4-1.49-.58-2.13A19.9,19.9,0,0,1,13.54,2.46a19,19,0,0,1,6-1.47,20.09,20.09,0,0,1,9.51,1.65,9.85,9.85,0,0,1,2.74,1.25c1.35.78,2.5,1.67,2,1.16A25.78,25.78,0,0,1,37.36,8.7a5.74,5.74,0,0,1,1.21,1.39A13.15,13.15,0,0,1,39.7,12,19,19,0,0,1,41,15l.43,1.68c.11.6.19,1.22.28,1.8.13,1.15.11,2.15.16,2.52.09,1.17,0-2.73.06-1.57a20,20,0,0,0-1.23-5.73,24.49,24.49,0,0,0-1.18-2.68A23.16,23.16,0,0,0,38,8.61,21,21,0,0,0,1.79,12.52,21.25,21.25,0,0,0,.07,19.39a20.8,20.8,0,0,0,.87,7.88,21.07,21.07,0,0,0,3.87,7.12,20.56,20.56,0,0,0,5.85,4.88,22.07,22.07,0,0,0,6,2.29,23.37,23.37,0,0,0,4.62.43l.84,0A20.49,20.49,0,0,0,35.94,35.6a21.2,21.2,0,0,0,3.38-4.85c-.47.78-.93,1.5-1.37,2.09a19.34,19.34,0,0,0,2.23-4.22c.74-2,.69-2.49.61-2.23s-.15.44-.28.8L40,28.34c-.22.53-.22.43-.24.4s0,0-.47.83a12,12,0,0,0,.63-1.51,11.74,11.74,0,0,0,.51-1.55,3.64,3.64,0,0,0-.15.53c-.12.33-.29.78-.44,1.21-.28.87-.71,1.58-.53,1.16a18.75,18.75,0,0,0,1.28-3.74c-.11.2-.32,1.31-.73,2.28a8.28,8.28,0,0,1-.78,1.74A15.43,15.43,0,0,0,40.42,26c0-.05-.31,1.22-.57,1.81a16.32,16.32,0,0,0,.92-4c0-.59,0-.22-.38,1.54.16-.61.24-1.36.37-2.12s.1-1.54.14-2.2h0c-.06.66-.07,1.81-.18,2.41.11-.74.1-1.5.15-2.25l0,.39c0,.56,0,1.13-.13,1.71.08-.5.07-1,.11-1.5,0,.4-.09.83-.14,1.27a23.75,23.75,0,0,1-1.07,4.27,19.68,19.68,0,0,1-6.66,9.23,18.73,18.73,0,0,1-5,2.79A18.83,18.83,0,0,1,22.31,40.58Z"/><path class="cls-1" d="M14.06,25.42s0,.12-.09,0c-.43-.39-.69-.79-1.12-1.18h-.06c-.27-.3-.75-.82-.6-.7h0l.32-.34.83-.85s-.05,0,0-.06c.24-.27.61-.61,1-1l.15-.17s0-.07,0-.08l.45-.44,1.73-1.85.88-1,.44-.47.19-.23.2.17.46.43,1,1c.45.39.9.77,1.31,1.16.61.59,1.35,1.37,1.93,2,0-.21,1.5,1.16,1.33.76.25.25.74.74,1,1a.87.87,0,0,0-.13.17c0,.07,0,.22-.3.6a12,12,0,0,1-1,1.19c-.39.42-1.05,1-1.17,1.16s.59-.45.39-.2l2.95-2.92-7-7-1-1L14.6,19.23l-4.3,4.32,2.6,2.62.16.16c1,1,2.15,2.14,3,2.92l1.24,1.05-.43-.54.55.55c.25.25.45.44.56.53l.22.19c.78-.86.3-.48,0-.29l-.12-.17c-.23-.29.09-.08-.22-.46l.34.34.23-.23s-.11.08-.23.21c-.19-.18-.4-.39-.29-.33l.29.29.34-.37a1.54,1.54,0,0,0-.34.29c-.17-.17-.33-.34-.29-.35s.16.19.29.33c.12-.11.25-.22.24-.28a2,2,0,0,0-.24.23l0,0h0l.32-.35a2.91,2.91,0,0,0,.26-.33c.1-.14,0-.07-.38.23.22-.22.63-.58.88-.84h0l-.5.47.46-.45-.1.05-.36.34.31-.3-.31.2-.29.24c-.09.07-.22.18-.21.15h-.07l0,0h0l-.06-.07-.58-.59-1.15-1.18Z"/><path class="cls-1" d="M26.82,18.24s0,.06,0,.08a0,0,0,0,0,0,0s0-.1,0-.09l0,0s-.08-.11-.14-.19l-.21-.26L25.52,17s0,0-.05,0-.28-.29-.45-.47l-.08-.07h-.05c-.1-.1-.1-.1-.1-.11l-.12-.06a.57.57,0,0,1,.09-.18l.5-.6,1.06-1.24c.2-.26.26-.38.4-.55l.1-.1.61.65c.08-.16.8.46.78.21.18.18.45.46.5.44s.39,0,.93.4c.2.18.45.51.54.56s-.18-.32,0-.24l-1.4-1.43-1.92-1.9L24.94,14.2c-.08.11-.28.33-.55.62-.42.42-.91.93-1.44,1.48,2.22,2.19,2.25,2.22,3.87,3.85l.05,0L27,20l1.07-1.08a9.25,9.25,0,0,0,.63-.72l.45-.63-.28.18a3,3,0,0,0,.42-.46c.34-.43.06-.27-.17-.2s-.05-.12-.25,0l.31-.3s-.36.39-.33.26.24-.26.37-.38c-.09,0-.44.4-.47.34s.4-.28.37-.36l-.19.17c.36-.39.52-.65.11-.37a5.39,5.39,0,0,0,.43-.39h0l-.24.21.22-.21-.06,0a1.19,1.19,0,0,0-.18.15l.15-.14a.83.83,0,0,0-.18.07,4.31,4.31,0,0,0-.5.33Z"/></g></g></svg>