<svg xmlns="http://www.w3.org/2000/svg" viewBox="0 0 41.93 41.99"><defs><style>.cls-1{fill:#f7f7f7;}</style></defs><g id="Слой_2" data-name="Слой 2"><g id="Слой_2-2" data-name="Слой 2"><path class="cls-1" d="M27.91,39.37a18.73,18.73,0,0,0,5-2.79,19.68,19.68,0,0,0,6.66-9.23,23.75,23.75,0,0,0,1.07-4.27c.05-.44.09-.87.14-1.27,0,.5,0,1-.11,1.5.08-.58.08-1.15.13-1.71l0-.39c0,.75,0,1.51-.15,2.25.11-.6.12-1.75.18-2.41h0c0,.66-.06,1.44-.14,2.2s-.21,1.51-.37,2.12c.38-1.76.43-2.13.38-1.54a16.32,16.32,0,0,1-.92,4c.26-.59.57-1.86.57-1.81a15.43,15.43,0,0,1-1.33,3.66A8.28,8.28,0,0,0,39.87,28c.41-1,.62-2.08.73-2.28a18.75,18.75,0,0,1-1.28,3.74c-.18.42.25-.29.53-1.16L40.29,27a3.64,3.64,0,0,1,.15-.53,11.74,11.74,0,0,1-.51,1.55,12,12,0,0,1-.63,1.51c.43-.81.44-.87.47-.83s0,.13.24-.4l.5-1.15c.13-.36.22-.67.28-.8s.13.23-.61,2.23A19.34,19.34,0,0,1,38,32.84c.44-.59.9-1.31,1.37-2.09a21.2,21.2,0,0,1-3.38,4.85A20.49,20.49,0,0,1,22.16,42l-.84,0a23.37,23.37,0,0,1-4.62-.43,22.07,22.07,0,0,1-6-2.29,20.56,20.56,0,0,1-5.85-4.88A21.07,21.07,0,0,1,.94,27.27a20.8,20.8,0,0,1-.87-7.88,21.25,21.25,0,0,1,1.72-6.87A21,21,0,0,1,38,8.61a23.16,23.16,0,0,1,1.57,2.45,24.49,24.49,0,0,1,1.18,2.68,20,20,0,0,1,1.23,5.73c-.09-1.16,0,2.74-.06,1.57,0-.37,0-1.37-.16-2.52-.09-.58-.17-1.2-.28-1.8L41,15A19,19,0,0,0,39.7,12a13.15,13.15,0,0,0-1.13-1.86A5.74,5.74,0,0,0,37.36,8.7a25.78,25.78,0,0,0-3.58-3.65c.51.51-.64-.38-2-1.16a9.85,9.85,0,0,0-2.74-1.25A20.09,20.09,0,0,0,19.54,1a19,19,0,0,0-6,1.47A19.9,19.9,0,0,0,1.67,25.11c.18.64.31,1.36.58,2.13a1.28,1.28,0,0,1,.13.26l.28.74a9.55,9.55,0,0,0,.53,1.22c.19.39.35.79.56,1.14a19.19,19.19,0,0,0,1.18,1.84c.18.24.17.2.14.13a19.72,19.72,0,0,0,6.81,5.85,19.26,19.26,0,0,0,2.22,1c.37.13.74.29,1.12.41l1.13.31h.15a19.05,19.05,0,0,0,5.58.51c.63,0,.22,0,.23-.08A18.83,18.83,0,0,0,27.91,39.37ZM15.12,27.72s-.06,0-.06,0a.7.7,0,0,1,.09-.24c0-.07.09-.16.06-.13l0,0a.08.08,0,0,1,.07,0s0,0,0,0,0-.06,0-.06,0,0,0,.05h0l0,0a.06.06,0,0,1,0,0c0-.06.16.24.25.39l.33.57a5.07,5.07,0,0,0,.87,1.17,1.41,1.41,0,0,0,.66.32,1.12,1.12,0,0,0,1-.38c-.11-.07.22-.65,0-.64.1-.14.24-.37.2-.4s-.17-.29,0-.74c0-.17.21-.4.21-.47s-.18.18-.18.07a6.39,6.39,0,0,1-.89,1.54l-.09.09h0a2,2,0,0,1-.36-.49,3.24,3.24,0,0,1-.37-.64l-.26-.57-.16-.33a3.6,3.6,0,0,0-.32-.58,1.24,1.24,0,0,0-.84-.66,1,1,0,0,0-.87.39,3.1,3.1,0,0,0-.47.9l-.15.47,0,.08a6,6,0,0,0-.23,1.42,5.09,5.09,0,0,0,0,.56l.11-.21a1.52,1.52,0,0,0,0,.43c0,.4.12.19.25.06s.11.05.19-.1l-.05.29s0-.37.09-.27a2.09,2.09,0,0,0,0,.36c.06,0,.08-.41.14-.38s-.14.32-.06.35,0-.11,0-.17c0,.37,0,.58.15.26a2.83,2.83,0,0,0-.08.4h0l.05-.22,0,.21,0,0a1.24,1.24,0,0,0,0-.16l0,.14.09-.11a2.55,2.55,0,0,0,.17-.39C14.8,29.09,15,28.38,15.12,27.72Zm0-7.17s-.06,0-.06,0a.7.7,0,0,1,.09-.24c0-.07.09-.16.06-.13l0,0a.09.09,0,0,1,.07,0s0-.05,0-.06,0,0,0-.06,0,0,0,.05h0l0,0a.06.06,0,0,1,0,0c0-.06.16.24.25.39l.33.57a5.07,5.07,0,0,0,.87,1.17,1.41,1.41,0,0,0,.66.32,1.12,1.12,0,0,0,1-.38c-.11-.07.22-.65,0-.64.1-.14.24-.37.2-.4s-.17-.29,0-.74c0-.16.21-.4.21-.47s-.18.18-.18.07a6.39,6.39,0,0,1-.89,1.54l-.09.09h0a2,2,0,0,1-.36-.49,3.24,3.24,0,0,1-.37-.64l-.26-.57-.16-.33a3.6,3.6,0,0,0-.32-.58,1.24,1.24,0,0,0-.84-.66,1,1,0,0,0-.87.39,3.1,3.1,0,0,0-.47.9l-.15.47,0,.08a6,6,0,0,0-.23,1.43,5.09,5.09,0,0,0,0,.55l.11-.21a1.52,1.52,0,0,0,0,.43c0,.4.12.19.25.06s.11.06.19-.1l-.05.29s0-.37.09-.27a2.09,2.09,0,0,0,0,.36c.06,0,.08-.41.14-.38s-.14.32-.06.36a.82.82,0,0,0,0-.18c0,.37,0,.58.15.26a2.83,2.83,0,0,0-.08.4h0l.05-.22,0,.21,0,0a.94.94,0,0,0,0-.16l0,.14.09-.11a2.18,2.18,0,0,0,.17-.39C14.8,21.91,15,21.21,15.12,20.55Zm0-7.18s-.06,0-.06,0a.58.58,0,0,1,.09-.23c0-.08.09-.17.06-.14l0,0a.06.06,0,0,1,.07,0s0-.05,0-.06,0-.05,0-.06,0,0,0,.05h0l0,0a.08.08,0,0,1,0,0c0-.05.16.24.25.4l.33.56A5.07,5.07,0,0,0,16.79,15a1.41,1.41,0,0,0,.66.32,1.12,1.12,0,0,0,1-.38c-.11-.07.22-.65,0-.64.1-.13.24-.37.2-.4s-.17-.29,0-.73c0-.17.21-.41.21-.48s-.18.18-.18.07a6.39,6.39,0,0,1-.89,1.54c0,.05-.07.06-.09.09h0a1.75,1.75,0,0,1-.36-.49,3.24,3.24,0,0,1-.37-.64l-.26-.57-.16-.33a3.6,3.6,0,0,0-.32-.58,1.24,1.24,0,0,0-.84-.66,1,1,0,0,0-.87.4,3.05,3.05,0,0,0-.47.89l-.15.47,0,.08a6,6,0,0,0-.23,1.43,5.09,5.09,0,0,0,0,.55l.11-.21a1.52,1.52,0,0,0,0,.43c0,.4.12.19.25.06s.11.06.19-.1l-.05.3s0-.38.09-.28a2.09,2.09,0,0,0,0,.36c.06,0,.08-.41.14-.38s-.14.32-.06.36a.82.82,0,0,0,0-.18c0,.37,0,.59.15.26a2.83,2.83,0,0,0-.08.4h0l.05-.22,0,.21,0,0a.94.94,0,0,0,0-.16l0,.14.09-.11a2.18,2.18,0,0,0,.17-.39C14.8,14.73,15,14,15.12,13.37Zm9.21,14.35s-.06,0-.06,0a.7.7,0,0,1,.09-.24,1.29,1.29,0,0,0,.06-.13l0,0a.1.1,0,0,1,.07,0s0,0,0,0,0-.06,0-.06,0,0,0,.05h0l0,0s0,0,0,0,.16.24.25.39l.33.57A5.07,5.07,0,0,0,26,29.39a1.41,1.41,0,0,0,.66.32,1.12,1.12,0,0,0,1-.38c-.11-.07.22-.65,0-.64.1-.14.23-.37.2-.4s-.17-.29-.05-.74c.05-.17.21-.4.21-.47s-.18.18-.18.07A6.39,6.39,0,0,1,27,28.69a.75.75,0,0,0-.09.09h0a2.15,2.15,0,0,1-.37-.49,4.11,4.11,0,0,1-.36-.64l-.27-.57-.15-.33a3.6,3.6,0,0,0-.32-.58,1.24,1.24,0,0,0-.84-.66,1,1,0,0,0-.87.39,3.1,3.1,0,0,0-.47.9l-.15.47,0,.08a6.59,6.59,0,0,0-.24,1.42c0,.19,0,.38,0,.56l.12-.21a2.23,2.23,0,0,0-.05.43c0,.4.13.19.26.06s.11.05.19-.1l-.05.29s0-.37.09-.27,0,.24-.05.36.09-.41.15-.38-.14.32-.06.35,0-.11,0-.17c0,.37,0,.58.14.26,0,.12-.07.28-.07.4h0l.05-.22,0,.21,0,0a1.24,1.24,0,0,0,0-.16l0,.14a.44.44,0,0,0,.08-.11,2,2,0,0,0,.18-.39C24,29.09,24.16,28.38,24.33,27.72Zm0-7.17s-.06,0-.06,0a.7.7,0,0,1,.09-.24,1.29,1.29,0,0,0,.06-.13l0,0a.11.11,0,0,1,.07,0s0-.05,0-.06,0,0,0-.06,0,0,0,.05h0l0,0s0,0,0,0,.16.24.25.39l.33.57A5.07,5.07,0,0,0,26,22.21a1.41,1.41,0,0,0,.66.32,1.12,1.12,0,0,0,1-.38c-.11-.07.22-.65,0-.64.1-.14.23-.37.2-.4s-.17-.29-.05-.74c.05-.16.21-.4.21-.47s-.18.18-.18.07A6.39,6.39,0,0,1,27,21.51a.75.75,0,0,0-.09.09h0a2.15,2.15,0,0,1-.37-.49,4.11,4.11,0,0,1-.36-.64l-.27-.57-.15-.33a3.6,3.6,0,0,0-.32-.58,1.24,1.24,0,0,0-.84-.66,1,1,0,0,0-.87.39,3.1,3.1,0,0,0-.47.9l-.15.47,0,.08a6.57,6.57,0,0,0-.24,1.43c0,.18,0,.37,0,.55L23,22a2.23,2.23,0,0,0-.05.43c0,.4.13.19.26.06s.11.06.19-.1l-.05.29s0-.37.09-.27,0,.24-.05.36.09-.41.15-.38-.14.32-.06.36a.82.82,0,0,0,0-.18c0,.37,0,.58.14.26,0,.12-.07.28-.07.4h0l.05-.22,0,.21,0,0a.94.94,0,0,0,0-.16l0,.14a.44.44,0,0,0,.08-.11,1.76,1.76,0,0,0,.18-.39C24,21.91,24.16,21.21,24.33,20.55Zm0-7.18s-.06,0-.06,0a.58.58,0,0,1,.09-.23c0-.08.08-.17.06-.14l0,0a.07.07,0,0,1,.07,0s0-.05,0-.06,0-.05,0-.06,0,0,0,.05h0l0,0s0,0,0,0,.16.24.25.4l.33.56A5.07,5.07,0,0,0,26,15a1.41,1.41,0,0,0,.66.32,1.12,1.12,0,0,0,1-.38c-.11-.07.22-.65,0-.64.1-.13.23-.37.2-.4s-.17-.29-.05-.73c.05-.17.21-.41.21-.48s-.18.18-.18.07A6.39,6.39,0,0,1,27,14.33c0,.05-.07.06-.09.09h0a1.91,1.91,0,0,1-.37-.49,4.11,4.11,0,0,1-.36-.64l-.27-.57-.15-.33a3.6,3.6,0,0,0-.32-.58,1.24,1.24,0,0,0-.84-.66,1,1,0,0,0-.87.4,3.05,3.05,0,0,0-.47.89l-.15.47L23,13a6.57,6.57,0,0,0-.24,1.43c0,.18,0,.37,0,.55l.12-.21a2.23,2.23,0,0,0-.05.43c0,.4.13.19.26.06s.11.06.19-.1l-.05.3s0-.38.09-.28,0,.24-.05.36.09-.41.15-.38-.14.32-.06.36a.82.82,0,0,0,0-.18c0,.37,0,.59.14.26,0,.12-.07.28-.07.4h0l.05-.22,0,.21,0,0a.94.94,0,0,0,0-.16l0,.14a.44.44,0,0,0,.08-.11,1.76,1.76,0,0,0,.18-.39C24,14.73,24.16,14,24.33,13.37Z"/></g></g></svg>