<svg xmlns="http://www.w3.org/2000/svg" viewBox="0 0 41.93 41.99"><defs><style>.cls-1{fill:#f7f7f7;}</style></defs><g id="Слой_2" data-name="Слой 2"><g id="Слой_6" data-name="Слой 6"><path class="cls-1" d="M22.31,40.58s.4,0-.23.08a19.05,19.05,0,0,1-5.58-.51h-.15l-1.13-.31c-.38-.12-.75-.28-1.12-.41a19.26,19.26,0,0,1-2.22-1,19.72,19.72,0,0,1-6.81-5.85c0,.07,0,.11-.14-.13A19.19,19.19,0,0,1,3.75,30.6c-.21-.35-.37-.75-.56-1.14a9.55,9.55,0,0,1-.53-1.22l-.28-.74a1.28,1.28,0,0,0-.13-.26c-.27-.77-.4-1.49-.58-2.13A19.9,19.9,0,0,1,13.54,2.46a19,19,0,0,1,6-1.47,20.09,20.09,0,0,1,9.51,1.65,9.85,9.85,0,0,1,2.74,1.25c1.35.78,2.5,1.67,2,1.16A25.78,25.78,0,0,1,37.36,8.7a5.74,5.74,0,0,1,1.21,1.39A13.15,13.15,0,0,1,39.7,12,19,19,0,0,1,41,15l.43,1.68c.11.6.19,1.22.28,1.8.13,1.15.11,2.15.16,2.52.09,1.17,0-2.73.06-1.57a20,20,0,0,0-1.23-5.73,24.49,24.49,0,0,0-1.18-2.68A23.16,23.16,0,0,0,38,8.61,21,21,0,0,0,1.79,12.52,21.25,21.25,0,0,0,.07,19.39a20.8,20.8,0,0,0,.87,7.88,21.07,21.07,0,0,0,3.87,7.12,20.56,20.56,0,0,0,5.85,4.88,22.07,22.07,0,0,0,6,2.29,23.37,23.37,0,0,0,4.62.43l.84,0A20.49,20.49,0,0,0,35.94,35.6a21.2,21.2,0,0,0,3.38-4.85c-.47.78-.93,1.5-1.37,2.09a19.34,19.34,0,0,0,2.23-4.22c.74-2,.69-2.49.61-2.23s-.15.44-.28.8L40,28.34c-.22.53-.22.43-.24.4s0,0-.47.83a10.71,10.71,0,0,0,.63-1.51,11.74,11.74,0,0,0,.51-1.55,3.64,3.64,0,0,0-.15.53c-.12.33-.29.78-.44,1.21-.28.87-.71,1.58-.53,1.16a18.75,18.75,0,0,0,1.28-3.74c-.11.2-.32,1.31-.73,2.28a8.28,8.28,0,0,1-.78,1.74A15.43,15.43,0,0,0,40.42,26c0-.05-.31,1.22-.57,1.81a16.32,16.32,0,0,0,.92-4c0-.59,0-.22-.38,1.54.16-.61.24-1.36.37-2.12s.1-1.54.14-2.2h0c-.06.66-.07,1.81-.18,2.41.11-.74.1-1.5.15-2.25l0,.39c0,.56,0,1.13-.13,1.71.08-.5.07-1,.11-1.5,0,.4-.09.83-.14,1.27a23.75,23.75,0,0,1-1.07,4.27,19.68,19.68,0,0,1-6.66,9.23,18.73,18.73,0,0,1-5,2.79A18.83,18.83,0,0,1,22.31,40.58Z"/><path class="cls-1" d="M18.7,26.62s.08.14-.11,0A7.08,7.08,0,0,1,17.25,25l-.07,0a7.33,7.33,0,0,1-.69-1.68,7.64,7.64,0,0,1-.28-3.39s0,0,0-.08a6.48,6.48,0,0,1,.52-1.73l.12-.28c0-.07,0-.1,0-.12.14-.27.3-.5.43-.72a7.62,7.62,0,0,1,3.95-3.18,7.74,7.74,0,0,1,5.42.11,7,7,0,0,1,2.1,1.2,7.66,7.66,0,0,1,2.18,3.11c0-.11.35.47.53,1.07s.31,1.18.36.88a14.75,14.75,0,0,1,0,2.07,1.52,1.52,0,0,1,.07.78,6.31,6.31,0,0,1-.65,2.19,9.49,9.49,0,0,1-1.52,2c-.29.39.84-.77.55-.39a8.81,8.81,0,0,0-6.18-14.57,9,9,0,0,0-3.67.61A8.91,8.91,0,0,0,15.8,17a8.82,8.82,0,0,0-.67,6.42,9.35,9.35,0,0,0,1.11,2.46,10.51,10.51,0,0,0,1.23,1.5l.27.23a8.32,8.32,0,0,0,2.88,1.71,8.45,8.45,0,0,0,3.06.45,8.92,8.92,0,0,0,2.4-.5c-.37.07-.71.13-1,.16a6.83,6.83,0,0,0,1.87-.59c.79-.38.9-.56.79-.53s-.5.18-.82.26.11-.15-.58,0a7.75,7.75,0,0,0,1.18-.53c.05,0-1.45.69-1.14.47a7.32,7.32,0,0,0,1.4-.7,7.63,7.63,0,0,1-1.57.66,4.88,4.88,0,0,0,1.39-.64s-.43.24-.67.33a5.37,5.37,0,0,0,1.35-.89c.17-.17,0-.1-.56.26.21-.12.44-.3.68-.47s.23-.19.34-.29l.16-.14.08-.07,0,0,0,0h0l.28.28L29,26.51h0c-.19.16-.52.47-.71.6.23-.17.44-.38.66-.57l-.14.08-.51.42a5.2,5.2,0,0,0,.44-.38l-.41.28a10.49,10.49,0,0,1-1.48.8A7.52,7.52,0,0,1,18.7,26.62Z"/><path class="cls-1" d="M11.66,24.84s0,.11-.1,0a5.14,5.14,0,0,1-.9-1.13H10.6a4.91,4.91,0,0,1-.45-1.16,5.17,5.17,0,0,1-.2-2.31s0,0,0,0A4.05,4.05,0,0,1,10.28,19l.08-.19a.26.26,0,0,0,0-.09,6,6,0,0,1,3-2.72,5.41,5.41,0,0,1,3.76,0,5,5,0,0,1,1.49.82A5.3,5.3,0,0,1,20.12,19c.05-.08.29.32.44.75s.25.82.3.61a12.84,12.84,0,0,1,0,1.48.93.93,0,0,1,.1.57,4.08,4.08,0,0,1-.42,1.61,7.1,7.1,0,0,1-1.11,1.47c-.21.3.63-.54.42-.25A6.44,6.44,0,0,0,21,18.52a6.53,6.53,0,0,0-5.61-3.94,6.82,6.82,0,0,0-2.68.46,6.56,6.56,0,0,0-3.36,3,6.44,6.44,0,0,0,1.22,7.58l.19.17a6.19,6.19,0,0,0,2.11,1.25,5.9,5.9,0,0,0,2.23.31,6,6,0,0,0,1.74-.4c-.27.05-.52.08-.74.1a4.83,4.83,0,0,0,1.34-.43c.57-.29.64-.42.56-.41s-.37.1-.61.14.07-.14-.43,0a5.65,5.65,0,0,0,.84-.37s-1,.49-.82.32a4.8,4.8,0,0,0,1-.49c-.12,0-1.13.54-1.11.43.19,0,1-.33,1-.44s-.3.16-.47.22a3.16,3.16,0,0,0,.94-.64c.11-.12,0-.08-.42.16.15-.09.31-.21.48-.32s.16-.14.24-.2l.11-.1.05-.05,0,0h0l.28.28-.28-.28h0c-.14.11-.37.32-.5.41.16-.12.3-.26.46-.4l-.1,0-.36.29a3.73,3.73,0,0,0,.3-.26l-.29.17a9,9,0,0,1-1,.52A5.14,5.14,0,0,1,11.66,24.84Z"/></g></g></svg>