<svg xmlns="http://www.w3.org/2000/svg" viewBox="0 0 41.93 41.99"><defs><style>.cls-1{fill:#f7f7f7;}</style></defs><g id="Слой_2" data-name="Слой 2"><g id="Слой_2-2" data-name="Слой 2"><path class="cls-1" d="M22.31,40.58s.4,0-.23.08a19.05,19.05,0,0,1-5.58-.51h-.15l-1.13-.31c-.38-.12-.75-.28-1.12-.41a19.26,19.26,0,0,1-2.22-1,19.72,19.72,0,0,1-6.81-5.85c0,.07,0,.11-.14-.13A19.19,19.19,0,0,1,3.75,30.6c-.21-.35-.37-.75-.56-1.14a9.55,9.55,0,0,1-.53-1.22l-.28-.74a1.28,1.28,0,0,0-.13-.26c-.27-.77-.4-1.49-.58-2.13A19.9,19.9,0,0,1,13.54,2.46a19,19,0,0,1,6-1.47,20.09,20.09,0,0,1,9.51,1.65,9.85,9.85,0,0,1,2.74,1.25c1.35.78,2.5,1.67,2,1.16A25.78,25.78,0,0,1,37.36,8.7a5.74,5.74,0,0,1,1.21,1.39A13.15,13.15,0,0,1,39.7,12,19,19,0,0,1,41,15l.43,1.68c.11.6.19,1.22.28,1.8.13,1.15.11,2.15.16,2.52.09,1.17,0-2.73.06-1.57a20,20,0,0,0-1.23-5.73,24.49,24.49,0,0,0-1.18-2.68A23.16,23.16,0,0,0,38,8.61,21,21,0,0,0,1.79,12.52,21.25,21.25,0,0,0,.07,19.39a20.8,20.8,0,0,0,.87,7.88,21.07,21.07,0,0,0,3.87,7.12,20.56,20.56,0,0,0,5.85,4.88,22.07,22.07,0,0,0,6,2.29,23.37,23.37,0,0,0,4.62.43l.84,0A20.49,20.49,0,0,0,35.94,35.6a21.2,21.2,0,0,0,3.38-4.85c-.47.78-.93,1.5-1.37,2.09a19.34,19.34,0,0,0,2.23-4.22c.74-2,.69-2.49.61-2.23s-.15.44-.28.8L40,28.34c-.22.53-.22.43-.24.4s0,0-.47.83a12,12,0,0,0,.63-1.51,11.74,11.74,0,0,0,.51-1.55,3.64,3.64,0,0,0-.15.53c-.12.33-.29.78-.44,1.21-.28.87-.71,1.58-.53,1.16a18.75,18.75,0,0,0,1.28-3.74c-.11.2-.32,1.31-.73,2.28a8.28,8.28,0,0,1-.78,1.74A15.43,15.43,0,0,0,40.42,26c0-.05-.31,1.22-.57,1.81a16.32,16.32,0,0,0,.92-4c0-.59,0-.22-.38,1.54.16-.61.24-1.36.37-2.12s.1-1.54.14-2.2h0c-.06.66-.07,1.81-.18,2.41.11-.74.1-1.5.15-2.25l0,.39c0,.56,0,1.13-.13,1.71.08-.5.07-1,.11-1.5,0,.4-.09.83-.14,1.27a23.75,23.75,0,0,1-1.07,4.27,19.68,19.68,0,0,1-6.66,9.23,18.73,18.73,0,0,1-5,2.79A18.83,18.83,0,0,1,22.31,40.58Z"/><path class="cls-1" d="M17.23,16.12s0-.05.07,0c.08.21,0,.39,0,.6l0,0a2.23,2.23,0,0,1-.15.51,5.73,5.73,0,0,1-.41,1s0,0,0,0a6.16,6.16,0,0,1-.32.58l-.05.1a0,0,0,0,0,0,.05l-.16.27a8.39,8.39,0,0,0-.92,3.94c0,.31.08.6.13.89a10.15,10.15,0,0,0,.22,1.36c.12-.1.5.82.6.57a1.76,1.76,0,0,0,.27.62c.15,0,.37.13.75.7.13.23.3.61.36.68s-.09-.35,0-.24a8.21,8.21,0,0,1-1.24-5.39,4.73,4.73,0,0,1,.23-1,10.82,10.82,0,0,1,.79-1.71,11.48,11.48,0,0,0,.95-2A3.58,3.58,0,0,0,18.58,16l0-.14a3.73,3.73,0,0,0-1.27-2,6.89,6.89,0,0,0-.73-.46,2.64,2.64,0,0,1,.23.29,2,2,0,0,0-.55-.39c-.53-.28-.29,0-.17.19s-.11.07.06.25l-.36-.25s.46.29.32.28a3.46,3.46,0,0,0-.45-.29c0,.08.49.35.43.39s-.36-.34-.43-.3a1,1,0,0,0,.21.16c-.47-.28-.76-.35-.39,0a3.76,3.76,0,0,0-.49-.31h0l.27.18L15,13.38l0,0,.19.13-.18-.1.12.14c.18.16.32.34.42.41A4,4,0,0,1,17.23,16.12Z"/><path class="cls-1" d="M20.52,27.66l.07,0s0,.07,0,.08h.05l0,.08a.34.34,0,0,0,.08.09h0s0,0,0,.06h0a0,0,0,0,1,0,0l.43.18.12,0s0,.08,0,.12.25-.05.39-.15,0,.06.06,0a.7.7,0,0,1,.36-.12s0,.08,0,.07.07-.08.12-.09a1.79,1.79,0,0,0-.25-.45,1.06,1.06,0,0,1-.33-.48h0a.19.19,0,0,0-.14-.12h-.15L21.4,27s0,0,0,0-.14,0-.24.1-.11.05-.14.09l0,0s.05,0,0,.06,0,0,0,0,0,.06-.05.08.06-.07,0-.05a0,0,0,0,0,0,0,.13.13,0,0,0-.18,0s0,0,0-.06h0a.1.1,0,0,1,0,0v0h0a0,0,0,0,0,0,0v0l0,.05-.09.1A1.47,1.47,0,0,0,20.52,27.66Z"/><path class="cls-1" d="M21.44,15.44s0-.06.07,0,.09.31.17.46h.05a2.85,2.85,0,0,1,0,.41,2,2,0,0,1,0,.73s0,0,0,0a1.58,1.58,0,0,1-.11.41.19.19,0,0,1,0,.07l0,0-.09.19c-.25.83-.74,1.72-1.08,2.76l-.16.67c-.1.31-.23.7-.31,1,.16,0,.13.74.32.61,0,.2-.05.5,0,.52s.27.21.39.7c0,.19,0,.5.05.57s.06-.27.12-.17a6.81,6.81,0,0,1,.83-4.13c.06-.26.61-1.11,1.07-2.27a3.63,3.63,0,0,0,.23-1.89,3.84,3.84,0,0,0-.44-1.28l-.05-.09a3.92,3.92,0,0,0-1.23-1.29,4.6,4.6,0,0,0-.59-.29,2.65,2.65,0,0,1,.17.22,1.83,1.83,0,0,0-.43-.27c-.43-.19-.25,0-.16.2s-.1.08,0,.23l-.29-.19s.37.21.25.22a2.56,2.56,0,0,0-.35-.22c0,.08.38.27.33.31s-.27-.27-.34-.22.1.08.16.12c-.36-.2-.6-.24-.32,0-.11-.06-.25-.18-.37-.24h0l.2.14-.2-.11,0,0,.15.1-.14-.07.08.12c.14.13.24.28.32.34A5.47,5.47,0,0,1,21.44,15.44Z"/><path class="cls-1" d="M24.08,24.8s.05,0,.07,0,0,.18,0,.27h.05l0,.23a2.67,2.67,0,0,0,.13.4,0,0,0,0,1,0,0s0,.13,0,.21l0,0h0l0,.1a11.14,11.14,0,0,0,.71,1,1.26,1.26,0,0,1,.2.2,3.17,3.17,0,0,1,.17.38c.13-.09.34.14.46,0,0,.07.08.18.13.17a.46.46,0,0,1,.47.06c.05.06.07.2.1.21s0-.14.1-.12c-.26-.54-.57-1-.8-1.57a5,5,0,0,1-.59-1.78v0a1.65,1.65,0,0,0-.14-.56l-.14-.21-.07.1c0-.08,0-.16,0-.19s-.16-.07-.26,0-.12,0-.17.07v-.14c-.05,0,0,.17-.05.13s0-.11,0-.16,0,.19-.08.18.08-.16,0-.17,0,.06,0,.09c0-.17-.1-.27-.18-.11a1.36,1.36,0,0,0,0-.2h0l0,.1v-.1l0,0a.19.19,0,0,0,0,.08v-.07l-.08.06c0,.08-.12.16-.12.2A4.77,4.77,0,0,0,24.08,24.8Z"/><path class="cls-1" d="M25.5,14.88s0-.06.07,0,.11.23.21.32l0,0a1.34,1.34,0,0,1,.12.3,3.05,3.05,0,0,1,.28.5s0,0,0,0a.78.78,0,0,1,.06.29l0,.05h0a.62.62,0,0,1,0,.13,3.16,3.16,0,0,1-.17,1.88c0,.16-.08.32-.13.47s-.27.45-.39.65c.16.05,0,.57.17.55-.08.13-.18.33-.15.36s.2.26.12.64c0,.14-.17.33-.17.39s.16-.14.17-.05c.42-1,1-1.88,1.54-3.08a4.59,4.59,0,0,0,.23-2.12A4.38,4.38,0,0,0,26.56,14l0,0a3.73,3.73,0,0,0-1-.79,4.19,4.19,0,0,0-.46-.16l.12.17a.91.91,0,0,0-.33-.18c-.32-.12-.2.05-.15.21s-.09.09,0,.2l-.21-.13s.28.14.18.17a1.35,1.35,0,0,0-.26-.15c0,.06.28.19.23.24s-.19-.22-.25-.16.08.06.12.09c-.28-.14-.45-.15-.26,0a2.53,2.53,0,0,0-.27-.18h0l.15.11L24,13.37v.05l.1.07L24,13.44l.05.1a2.1,2.1,0,0,0,.22.28A7.6,7.6,0,0,1,25.5,14.88Z"/></g></g></svg>